<?xml version="1.0" encoding="UTF-8"?>
<svg id="Capa_2" data-name="Capa 2" xmlns="http://www.w3.org/2000/svg" viewBox="0 0 466 466">
  <defs>
    <style>
      .cls-1 {
        fill: none;
      }

      .cls-1, .cls-2 {
        stroke-width: 0px;
      }

      .cls-2 {
        fill: #f4dfb9;
      }
    </style>
  </defs>
  <g id="Capa_1-2" data-name="Capa 1">
    <g>
      <rect class="cls-1" width="466" height="466"/>
      <g>
        <path class="cls-2" d="M233.37,365.26c-50.92,0-96.74-28.86-118.86-74.18-3.98.83-8.04,1.25-12.15,1.25-32.71,0-59.33-26.62-59.33-59.33s26.62-59.33,59.33-59.33c4.11,0,8.17.42,12.15,1.25,22.12-45.32,67.93-74.18,118.86-74.18s96.65,28.81,118.79,74.05c3.77-.74,7.6-1.12,11.47-1.12,32.71,0,59.33,26.62,59.33,59.33s-26.62,59.33-59.33,59.33c-3.87,0-7.7-.37-11.47-1.12-22.14,45.24-67.94,74.05-118.79,74.05ZM124.54,268.93l3.3,7.93c17.8,42.77,59.22,70.4,105.54,70.4s87.61-27.55,105.45-70.19l3.26-7.8,7.99,2.77c4.37,1.52,8.93,2.29,13.55,2.29,22.79,0,41.33-18.54,41.33-41.33s-18.54-41.33-41.33-41.33c-4.62,0-9.19.77-13.55,2.29l-7.99,2.77-3.26-7.8c-17.84-42.64-59.23-70.19-105.45-70.19s-87.74,27.63-105.54,70.4l-3.3,7.93-8.08-2.93c-4.51-1.64-9.25-2.47-14.09-2.47-22.79,0-41.33,18.54-41.33,41.33s18.54,41.33,41.33,41.33c4.84,0,9.58-.83,14.09-2.47l8.08-2.93Z"/>
        <g>
          <path class="cls-2" d="M193.74,157.92v33.31h-7.71v-13.66h-15.13v13.66h-7.71v-33.31h7.71v13.14h15.13v-13.14h7.71Z"/>
          <path class="cls-2" d="M224.58,165.62v25.6h-7.04v-3.05c-1.95,2.24-4.81,3.43-7.95,3.43-6.43,0-10.95-3.62-10.95-11.52v-14.47h7.42v13.37c0,4.28,1.9,6.19,5.19,6.19s5.9-2.19,5.9-6.9v-12.66h7.42Z"/>
          <path class="cls-2" d="M254.08,180.52h-19.37c.71,3.19,3.43,5.14,7.33,5.14,2.71,0,4.66-.81,6.42-2.47l3.95,4.28c-2.38,2.71-5.95,4.14-10.57,4.14-8.85,0-14.61-5.57-14.61-13.18s5.85-13.18,13.66-13.18,13.33,5.04,13.33,13.28c0,.57-.1,1.38-.14,2ZM234.62,176.19h12.61c-.52-3.24-2.95-5.33-6.28-5.33s-5.81,2.05-6.33,5.33Z"/>
          <path class="cls-2" d="M256.84,155.92h7.42v35.31h-7.42v-35.31Z"/>
          <path class="cls-2" d="M268.84,155.92h7.42v35.31h-7.42v-35.31Z"/>
          <path class="cls-2" d="M303.48,176.62v14.61h-6.95v-3.19c-1.38,2.33-4.04,3.57-7.8,3.57-6,0-9.57-3.33-9.57-7.76s3.19-7.66,10.99-7.66h5.9c0-3.19-1.9-5.04-5.9-5.04-2.71,0-5.52.9-7.38,2.38l-2.67-5.19c2.81-2,6.95-3.09,11.04-3.09,7.81,0,12.33,3.62,12.33,11.38ZM296.06,183.14v-2.62h-5.09c-3.47,0-4.57,1.29-4.57,3,0,1.86,1.57,3.09,4.19,3.09,2.48,0,4.62-1.14,5.47-3.47Z"/>
        </g>
        <g>
          <path class="cls-2" d="M201.06,272.32v39.79h-7.56l-19.84-24.16v24.16h-9.09v-39.79h7.62l19.78,24.16v-24.16h9.09Z"/>
          <path class="cls-2" d="M256.76,316.37c-2.62,3.18-6.37,4.89-10.74,4.89-5.91,0-10.06-2.16-16.2-8.64-10.91-1.36-18.59-9.61-18.59-20.41,0-11.82,9.21-20.58,21.77-20.58s21.77,8.7,21.77,20.58c0,9.32-5.74,16.71-14.21,19.44,1.93,2.05,3.64,2.79,5.63,2.79,2.44,0,4.6-.97,6.48-2.96l4.09,4.89ZM233,304.94c7.1,0,12.45-5.17,12.45-12.73s-5.34-12.73-12.45-12.73-12.45,5.17-12.45,12.73,5.34,12.73,12.45,12.73Z"/>
          <path class="cls-2" d="M301.43,272.32v39.79h-7.56l-19.84-24.16v24.16h-9.09v-39.79h7.62l19.78,24.16v-24.16h9.09Z"/>
        </g>
        <g>
          <path class="cls-2" d="M83.33,233.95c0-11.36,8.77-19.43,21.04-19.43,7.93,0,14.17,3.44,16.91,9.61l-8.49,4.56c-2.03-3.58-5.05-5.19-8.49-5.19-5.54,0-9.89,3.86-9.89,10.45s4.35,10.45,9.89,10.45c3.44,0,6.45-1.54,8.49-5.19l8.49,4.63c-2.74,6.03-8.98,9.54-16.91,9.54-12.28,0-21.04-8.07-21.04-19.43Z"/>
          <path class="cls-2" d="M160.97,231.29v21.53h-10.24v-4.7c-2.03,3.44-5.96,5.26-11.5,5.26-8.84,0-14.1-4.91-14.1-11.43s4.7-11.29,16.2-11.29h8.7c0-4.7-2.81-7.43-8.7-7.43-4,0-8.14,1.33-10.87,3.51l-3.93-7.65c4.14-2.95,10.24-4.56,16.27-4.56,11.5,0,18.17,5.33,18.17,16.76ZM150.03,240.89v-3.86h-7.51c-5.12,0-6.73,1.89-6.73,4.42,0,2.74,2.31,4.56,6.17,4.56,3.65,0,6.8-1.68,8.07-5.12Z"/>
          <path class="cls-2" d="M194.29,214.52v10.1c-.91-.07-1.61-.14-2.46-.14-6.03,0-10.03,3.3-10.03,10.52v17.82h-10.94v-37.74h10.45v4.98c2.67-3.65,7.15-5.54,12.98-5.54Z"/>
          <path class="cls-2" d="M241.91,233.95c0,11.85-8.21,19.43-18.8,19.43-5.05,0-9.12-1.61-11.85-4.91v4.35h-10.45v-52.05h10.94v18.31c2.81-3.09,6.66-4.56,11.36-4.56,10.59,0,18.8,7.58,18.8,19.43ZM230.83,233.95c0-6.52-4.14-10.45-9.61-10.45s-9.61,3.93-9.61,10.45,4.14,10.45,9.61,10.45,9.61-3.93,9.61-10.45Z"/>
          <path class="cls-2" d="M246.4,233.95c0-11.36,8.77-19.43,20.76-19.43s20.69,8.07,20.69,19.43-8.7,19.43-20.69,19.43-20.76-8.07-20.76-19.43ZM276.77,233.95c0-6.52-4.14-10.45-9.61-10.45s-9.68,3.93-9.68,10.45,4.21,10.45,9.68,10.45,9.61-3.93,9.61-10.45Z"/>
          <path class="cls-2" d="M333.72,231.21v21.6h-10.94v-19.92c0-6.1-2.81-8.91-7.65-8.91-5.26,0-9.05,3.23-9.05,10.17v18.66h-10.94v-37.74h10.45v4.42c2.95-3.23,7.37-4.98,12.49-4.98,8.91,0,15.64,5.19,15.64,16.69Z"/>
          <path class="cls-2" d="M341.22,233.95c0-11.36,8.77-19.43,20.76-19.43s20.69,8.07,20.69,19.43-8.7,19.43-20.69,19.43-20.76-8.07-20.76-19.43ZM371.59,233.95c0-6.52-4.14-10.45-9.61-10.45s-9.68,3.93-9.68,10.45,4.21,10.45,9.68,10.45,9.61-3.93,9.61-10.45Z"/>
        </g>
      </g>
    </g>
  </g>
</svg>