<?xml version="1.0" encoding="UTF-8"?>
<svg id="Capa_2" data-name="Capa 2" xmlns="http://www.w3.org/2000/svg" viewBox="0 0 466 466">
  <defs>
    <style>
      .cls-1 {
        fill: none;
      }

      .cls-1, .cls-2 {
        stroke-width: 0px;
      }

      .cls-2 {
        fill: #f4dfb9;
      }
    </style>
  </defs>
  <g id="Capa_1-2" data-name="Capa 1">
    <g>
      <rect class="cls-1" width="466" height="466"/>
      <g>
        <path class="cls-2" d="M252.62,249.4c-1.05,0-2.1,0-3.69,0,15.7-16.46,12.29-36.72,1.47-48-11.62-12.12-30.59-13.83-44.05-3.92-6.9,5.07-11.35,11.8-13.07,20.13-2.51,12.1,1.19,22.49,10.15,31.87-2.69,0-4.6-.09-6.5.01-12.37.7-21.6,10.15-21.86,22.54-.14,6.84-.13,13.68,0,20.51.13,6.77,5.17,11.97,11.89,12.09,9.55.17,19.11.09,28.66.05,2.78-.01,4.58-1.7,4.67-4.09.1-2.5-1.71-4.4-4.61-4.51-3.47-.13-6.95-.03-10.42-.05-.92,0-1.84-.1-2.9-.17,0-2.4.04-4.51-.01-6.62-.08-2.9-1.8-4.81-4.28-4.84-2.48-.03-4.28,1.88-4.37,4.75-.07,2.19-.01,4.39-.01,6.88-1.8,0-3.31.01-4.83,0-4.08-.04-5.13-1.07-5.15-5.15-.02-5.97-.05-11.94,0-17.91.09-8.82,5.83-14.8,14.63-14.85,18.53-.11,37.06-.12,55.59,0,8.67.06,14.43,6,14.56,14.63.07,4.91.02,9.82.02,14.74,0,8.6-.34,8.92-8.99,8.52-.26-.01-.52-.17-1-.33,0-2.19.06-4.39-.02-6.58-.1-2.84-1.97-4.75-4.45-4.67-2.38.07-4.11,1.91-4.2,4.62-.07,2.2-.02,4.4-.02,7.01-4.44,0-8.48-.04-12.52.01-3.4.04-5.38,1.66-5.41,4.32-.03,2.68,1.92,4.32,5.32,4.33,8.97.03,17.95.06,26.92,0,7.91-.06,12.94-5.14,13.02-13.08.06-5.87.03-11.75.01-17.63-.04-15.02-9.52-24.49-24.58-24.58ZM226.49,249.34c-13.46.31-24.96-10.66-25.26-24.08-.31-13.91,10.42-25.15,24.36-25.53,13.63-.37,25.15,10.6,25.41,24.2.26,13.85-10.59,25.1-24.51,25.42Z"/>
        <path class="cls-2" d="M238.58,327.81c-4.44.85-8.51,3.59-13.32,5.71-.09-.08-.4-.37-.72-.64-13.87-11.63-34.37-4.3-37.54,13.47-1.21,6.77.86,12.98,4.07,18.81,6.61,12.03,16.27,21.43,26.9,29.83,5.28,4.17,12.52,3.55,17.84-1.15,5.11-4.53,10.15-9.19,14.81-14.17,6.22-6.64,11.51-13.99,13.96-22.96,4.6-16.83-8.98-32.15-25.99-28.89ZM255.16,357.24c-2.26,6.66-6.68,12.12-11.48,17.15-4.25,4.45-8.8,8.62-13.37,12.75-2.73,2.47-5.4,2.52-8.09.27-8.01-6.69-15.51-13.88-21.3-22.65-2.94-4.45-5.35-9.14-5.51-13.47-.04-7.47,4.09-13.06,10.07-14.8,6.13-1.79,12.53.74,16.11,6.14.9,1.36,2.2,2.88,3.64,3.36,2.66.9,4.13-1.12,5.42-3.21,3.13-5.08,8.74-7.64,14.28-6.66,5.97,1.06,10.71,5.12,11.48,11.02.43,3.27-.17,6.93-1.25,10.09Z"/>
        <path class="cls-2" d="M126.99,196c.71-.68,2.32-1.73,3.25-3.21,6.75-10.66,14.93-20.06,24.76-27.98,3.44-2.77,7.18-5.18,10.72-7.83,2.16-1.61,2.58-4.13,1.19-6.09-1.37-1.93-3.61-2.37-5.9-1.13-.51.27-.97.62-1.46.93-14.86,9.79-27.01,22.21-36.46,37.26-.51.81-1.04,1.64-1.33,2.54-.93,2.83,1.12,5.52,5.22,5.49Z"/>
        <path class="cls-2" d="M165.38,346.69c-14.61-9.5-26.48-21.62-35.68-36.41-.76-1.22-2.37-1.93-2.97-2.4-4.54.08-6.33,3.62-4.3,6.94,9.72,15.96,22.5,28.97,38.22,39.09,2.48,1.6,4.9,1.14,6.34-1.01,1.4-2.09.88-4.59-1.6-6.21Z"/>
        <path class="cls-2" d="M328.71,308.58c-1.94-1.22-3.89-.96-5.5.7-.59.61-1.02,1.4-1.48,2.13-8.74,13.89-19.95,25.36-33.63,34.44-.88.58-2.1,1.1-2.44,1.94-.56,1.39-1.08,3.22-.61,4.5.47,1.26,2.19,2.05,3.43,3.1,1.68-.85,2.92-1.34,4.01-2.06,15.03-9.89,27.32-22.44,36.83-37.7.4-.65.82-1.31,1.07-2.03.73-2.08.15-3.86-1.69-5.02Z"/>
        <path class="cls-2" d="M287.1,157.43c14.38,9.3,26.04,21.26,35.08,35.78,1.77,2.84,4.25,3.6,6.53,2.16,2.23-1.41,2.56-3.94.77-6.82-9.64-15.53-22.12-28.3-37.47-38.25-.94-.61-2.03-.98-3.7-1.77-1.21,1.18-2.88,2.16-3.51,3.6-.96,2.21.3,4.01,2.3,5.3Z"/>
        <path class="cls-2" d="M144.69,299.61c.06-.02.12-.05.18-.07.03-.01.06-.03.07-.03,4.17-.79,7.08-3.81,7.59-7.89.33-2.61.53-5.26.73-7.82.06-.82.13-1.65.2-2.47.33-4.02.66-8.04.98-12.06.24-3,.48-6,.73-9,.59-7.23,1.19-14.46,1.79-21.69.11-1.3.22-2.6.34-3.92l.08-.95c.57,0,1.12,0,1.67,0,2.47-.03,4.08-1.65,4.1-4.11,0-.42.01-.84.02-1.26.03-1.29.05-2.62-.06-3.95-.14-1.7-.45-2.99-.96-4.08-1.63-3.45-4.63-5.29-8.66-5.32-3.52-.02-7.04-.02-10.56-.01h-4.39c0-.43,0-.86,0-1.28-.06-5.56-4.12-9.62-9.67-9.64-5.23-.02-10.54-.02-15.77,0-5.55.03-9.62,4.08-9.67,9.64,0,.42,0,.85,0,1.29h-4.5c-3.48,0-6.96-.01-10.44,0-5.55.03-9.61,4.09-9.66,9.66-.01,1.62-.01,3.23,0,4.85.02,2.57,1.62,4.18,4.2,4.21.52,0,1.04,0,1.57,0,.04.49.07.96.11,1.42l.79,9.48c.51,6.07,1.01,12.13,1.51,18.2.53,6.47,1.05,12.93,1.58,19.4l.67,8.28c.22,2.7,1.15,4.84,2.86,6.52,1.64,1.63,3.69,2.26,5.29,2.63l47.12.03.19-.07ZM126.01,211.83c.94,0,1.88,0,2.81,0,1.36,0,1.92.58,1.93,1.96,0,.38,0,.76,0,1.15h-19.55c-.01-.61-.02-1.19.03-1.75.09-1,.97-1.35,1.77-1.36,2.82,0,5.65,0,8.47,0h3.26s1.27,0,1.27,0ZM155.36,225.86h-68.76c0-.55,0-1.07.02-1.58.04-.83.64-1.44,1.5-1.51.16-.01.31,0,.47,0h64.65c2.01,0,2.08,1.1,2.11,1.47.04.52.03,1.06.02,1.63ZM149.54,233.75l-.08,1c-.13,1.6-.25,3.18-.38,4.76l-3.25,39.33c-.3,3.56-.59,7.12-.86,10.69-.15,2.03-.52,2.38-2.48,2.38h-43.18c-1.78,0-2.19-.4-2.34-2.25-.37-4.72-.77-9.44-1.16-14.17l-.61-7.35c-.27-3.34-.54-6.67-.81-10.01l-1.99-24.38h57.14Z"/>
        <path class="cls-2" d="M103.29,283.04c.44.16.9.24,1.34.24.75,0,1.49-.23,2.12-.67,1.08-.76,1.71-2.04,1.71-3.49,0-4.45,0-8.9,0-13.35v-24.28c0-2.85-1.49-4.62-3.89-4.62-2.4,0-3.89,1.77-3.89,4.62v37.39c0,.27,0,.55.02.82.18,1.62,1.1,2.81,2.59,3.35Z"/>
        <path class="cls-2" d="M117.08,265.31c0,4.59,0,9.19,0,13.78,0,2.4,1.62,4.16,3.86,4.18h.04c2.22,0,3.85-1.73,3.89-4.12,0-.13,0-.27,0-.41v-37.24s0-.23,0-.23c0-.28,0-.59-.03-.92-.2-1.57-1.11-2.72-2.55-3.25-1.2-.44-2.47-.29-3.48.42-1.09.76-1.72,2.03-1.72,3.48,0,4.57,0,9.14,0,13.71v5.33s0,5.27,0,5.27Z"/>
        <path class="cls-2" d="M136.08,283.03c.45.16.91.24,1.35.24.75,0,1.48-.23,2.11-.67,1.09-.76,1.71-2.03,1.72-3.49,0-4.59,0-9.17,0-13.76v-23.88c0-2.84-1.49-4.62-3.88-4.63h-.02c-1.05,0-1.96.36-2.64,1.03-.82.82-1.25,2.05-1.25,3.57v37.18s0,.22,0,.22c0,.27,0,.54.02.81.17,1.62,1.09,2.82,2.58,3.36Z"/>
        <path class="cls-2" d="M229.25,85.88c-.71-1.24-2.18-1.77-3.55-1.42-1.46.37-2.45,1.59-2.47,3.23-.04,3.73-.03,7.45-.03,11.18,0,.99-.22,1.74-1.57,1.81,0-.54,0-1,0-1.46,0-3.82,0-7.64-.04-11.46-.03-2.02-1.37-3.36-3.23-3.37-1.94,0-3.29,1.35-3.33,3.43-.04,1.93-.01,3.87-.01,5.8,0,2.34,0,4.68,0,7.12-1.52-.17-1.59-1.15-1.6-2.17-.02-3.68-.02-7.36-.04-11.03,0-1.37-.71-2.34-1.92-2.89-1.16-.53-2.34-.38-3.33.42-.52.42-.88,1.05-1.31,1.59v14.16c.54,1.13.94,2.36,1.66,3.38,1.53,2.17,3.82,3.09,6.48,3.25.02.41.05.73.05,1.06,0,10.61,0,21.22,0,31.83,0,6.08-.01,12.17,0,18.25,0,1.73,1.12,3.07,2.67,3.36,1.55.29,3.17-.52,3.66-1.98.25-.74.27-1.57.27-2.36,0-15.51,0-31.03-.01-46.54,0-1.21,0-2.41,0-3.57,5.24-.8,8.06-3.5,8.17-7.85.1-3.96.05-7.92,0-11.88,0-.63-.22-1.31-.53-1.86Z"/>
        <path class="cls-2" d="M240.43,86.76c-.45-1.68-1.9-2.54-3.56-2.38-1.58.15-2.72,1.37-2.91,3.14-.05.47-.04.94-.04,1.41,0,22.83,0,45.65,0,68.48,0,.61,0,1.23.11,1.83.26,1.61,1.51,2.67,3.13,2.72,2.08.06,3.41-1.47,3.42-3.95,0-11.04.02-22.07-.02-33.11,0-1.21.13-2.11,1.32-2.79.73-.42,1.4-1.22,1.71-2.01.73-1.85,1.23-3.8,1.83-5.71v-5.38c-.38-2.45-.6-4.94-1.16-7.35-1.17-4.99-2.48-9.95-3.82-14.9Z"/>
        <path class="cls-2" d="M227.74,68.23c-30-.11-54.67,24.57-54.68,54.71-.01,29.67,24.42,54.27,54.05,54.42,30.34.15,55.15-24.14,55.09-54.43-.05-30.3-24.08-54.31-54.45-54.7ZM227.55,167.39c-25.24-.36-44.59-20.4-44.42-44.8.17-24.79,20.22-44.43,44.69-44.24,24.72.19,44.7,20.38,44.34,44.82-.36,24.58-20.41,44.46-44.6,44.22Z"/>
        <path class="cls-2" d="M325.12,223.87c-5.1.59-9.87,1.98-14.16,4.12-4.84,2.42-8.63,5.4-11.62,9.11-3.15,3.93-5.47,8.51-7.07,13.99-.57,1.93-.3,3.77.75,5.17,1.05,1.4,2.74,2.17,4.76,2.17h63.46c1.08,0,2.56,0,4.14-.68,1.58-.68,2.62-1.95,2.94-3.56.21-1.06.13-2.17-.21-3.14-.39-1.11-.81-2.21-1.22-3.31-.29-.78-.59-1.56-.87-2.34-.88-2.41-2.02-4.61-3.4-6.56-3.51-4.96-8.35-8.84-14.37-11.53-4.13-1.85-8.66-3.03-13.48-3.51-3.23-.32-6.48-.31-9.64.06ZM334.07,230.73c4.13.42,7.84,1.38,11.34,2.94,4.94,2.21,8.71,5.22,11.54,9.21,1.03,1.46,1.86,3.06,2.54,4.92.29.81.6,1.61.9,2.42.16.43.32.85.48,1.28h-24.64s-36.8,0-36.8,0c1.3-3.9,3.06-7.2,5.33-10.03,2.34-2.92,5.39-5.29,9.31-7.25,3.57-1.79,7.56-2.94,11.85-3.44,2.67-.31,5.41-.33,8.15-.05Z"/>
        <path class="cls-2" d="M361.19,279.2h-35.71c-8.7,0-17.4,0-26.09,0-.69,0-1.44.03-2.26.26-2.43.67-4.21,2.32-4.88,4.51-.64,2.08-.14,4.35,1.33,6.09.79.94,1.54,1.91,2.34,2.95.45.58.9,1.17,1.35,1.75,1.38,1.75,3.29,2.67,5.5,2.67h0c18.3,0,36.59,0,54.89,0h0c2.25,0,4.19-.97,5.61-2.79,1.26-1.62,2.52-3.23,3.78-4.84,1.76-2.23,1.86-5.25.26-7.52-1.4-1.98-3.58-3.07-6.12-3.07ZM357.79,290.36c-.08.1-.13.14-.13.11-8.57,0-17.15,0-25.72,0-9.72,0-19.45,0-29.17,0h-.03s-.02-.02-.03-.03c-.44-.55-.86-1.11-1.29-1.66-.66-.86-1.34-1.74-2.06-2.62h.02c8.7,0,17.39,0,26.09,0h35.6c-1.1,1.4-2.2,2.81-3.29,4.21Z"/>
        <path class="cls-2" d="M409.19,218.21c-.02-3.35-2.21-5.52-5.59-5.53h-9.7c.13-.7.26-1.4.38-2.09.97-.38,1.94-.76,2.91-1.14,1.84-.73,3.68-1.45,5.53-2.16,2.52-.97,4.19-2.93,4.7-5.52.53-2.7-.36-5.26-2.45-7.01-1.94-1.62-4.4-2.02-6.76-1.08-2.16.86-4.32,1.71-6.47,2.56-1.94.76-3.87,1.53-5.81,2.3-2.26.9-3.84,2.77-4.32,5.13-.36,1.78-.67,3.57-.98,5.3-.14.78-.27,1.56-.41,2.34-.08.45-.16.91-.25,1.36h-15.36c-3.18,0-5.5,2.31-5.52,5.49-.01,2.83-.01,5.66,0,8.5.01,2.5,1.47,4.45,3.65,5.15-.09.8-.16,2.6,1.43,4.1l.17.16c1.3,1.24,2.54,2.4,3.64,3.65,3.11,3.52,5.33,7.68,6.6,12.34.42,1.55-.04,2.31-.61,2.9-.77.81-1.2,1.99-1.17,3.16.06,1.68.12,3.35.19,5.03l.12,3.23c.09,2.58.18,5.16.27,7.74l.4,11.37h4.46c.76,0,1.48,0,2.2,0,6.52.03,13.03.05,19.55.08h.04c1.68,0,3.04-.51,4.06-1.52,1.03-1.02,1.55-2.4,1.55-4.11v-47.29c0-.23-.01-.45-.03-.67v-.2c2.18-.72,3.56-2.63,3.58-5.22.02-2.58.02-5.32,0-8.37ZM388.38,205.06s.03-.02.09-.05c1.93-.77,3.86-1.53,5.79-2.29,2.1-.83,4.19-1.66,6.34-2.51,0,.03,0,.1-.02.22-.04.21-.05.25-.37.38-1.86.72-3.72,1.45-5.58,2.18-1.41.56-2.83,1.11-4.24,1.66-1.07.41-1.87,1.15-2.33,2.11.1-.57.21-1.14.32-1.7ZM366.01,219.64h36.23c0,1.95,0,3.77,0,5.53-12.08,0-24.15,0-36.23,0,0-1.84,0-3.68,0-5.53ZM398.68,278.64c-6.07-.03-12.14-.05-18.21-.08l-.16-4.67c-.09-2.58-.18-5.17-.27-7.76l-.12-3.25c-.05-1.35-.11-2.69-.15-4.04,1.86-2.44,2.38-5.39,1.5-8.61-1.51-5.53-4.12-10.48-7.76-14.72h25.18v43.11Z"/>
        <path class="cls-2" d="M363.55,261.52h-65.63c-4.26,0-7.72,3.46-7.72,7.72s3.46,7.72,7.72,7.72h65.63c4.26,0,7.72-3.46,7.72-7.72s-3.46-7.72-7.72-7.72ZM363.55,270.01h-65.63c-.43,0-.77-.35-.77-.77s.35-.77.77-.77h65.63c.43,0,.77.35.77.77s-.35.77-.77.77Z"/>
      </g>
    </g>
  </g>
</svg>