<?xml version="1.0" encoding="UTF-8"?>
<svg id="Capa_2" data-name="Capa 2" xmlns="http://www.w3.org/2000/svg" viewBox="0 0 466 466">
  <defs>
    <style>
      .cls-1 {
        fill: none;
      }

      .cls-1, .cls-2 {
        stroke-width: 0px;
      }

      .cls-2 {
        fill: #f4dfb9;
      }
    </style>
  </defs>
  <g id="Capa_1-2" data-name="Capa 1">
    <g>
      <rect class="cls-1" width="466" height="466"/>
      <g>
        <path class="cls-2" d="M132.44,220.72c-4.48-3.1-7-7.1-7.73-12.19-.64-4.49.18-8.76,1.67-13,.83-2.37,1.24-4.89,1.96-7.81,1.69,1.57,3.52,3.28,5.41,5.05,2.88-3.65,3.46-7.93,3.27-12.45-.27-6.18,3.17-11.27,8.59-12.8.04.08.11.17.11.24-.04.35-.09.7-.16,1.05-.96,5.35.23,9.9,4.48,13.65,3.69,3.25,5.72,7.58,6.76,12.37.21.99.44,1.98.66,2.96.31.07.61.14.92.2.94-2.21,1.88-4.42,2.79-6.56,5.64,8.98,4.38,20.49-3.03,28.64,7.63-2.73,13.69-7.22,17.08-14.74,3.78-8.4,3.28-17.06,1.19-25.71-1.01-4.17-2.56-8.22-3.86-12.32-3.31,10.33-3.45,10.59-6.54,11.7-.09-.15-.2-.3-.25-.46-.08-.26-.13-.53-.16-.79-1.3-10.34-5.72-19.02-13.54-26-4.41-3.94-6.38-9.12-6.29-14.99.04-2.84.51-5.67.8-8.75-7.79,2.87-12.61,8.24-14.12,16.3-.56,2.97-.34,6.09-.4,9.15-.13,6.46-1.54,12.47-6.01,17.78-2.47-4.02-5.01-7.68-10.25-8.89,1.86,4.51.48,8.3-1.09,12.07-3.26,7.84-4.51,15.92-2.88,24.33,2.03,10.47,11.02,20.19,20.63,21.96Z"/>
        <path class="cls-2" d="M384.07,221.67c-5.47-8.02-11.27-15.83-17.11-23.6-5.15-6.85-10.21-13.83-15.94-20.19-6.96-7.72-15.52-12.1-26.5-11.82-17.71.46-35.45.12-53.46.12,0-3.68-.12-7.91.02-12.13.37-10.98-7.8-20.06-19.78-19.76-16.01.4-32.03-.02-48.05.19-3.75.05-6.22-1.13-8.75-3.86-26.34-28.52-73.42-28.85-100.16-.84-22.86,23.95-26.5,57.98-9.38,86.39,1.2,1.99,1.91,4.59,1.92,6.92.13,26.61.44,53.22-.06,79.82-.26,14.09,10.2,23.31,22.3,22.36,3.36-.27,6.76-.04,10.02-.04,2.9,13.01,9.83,22.47,21.53,28,3.68,1.74,7.79,2.54,11.71,3.77h9.3c3.78-1.24,7.73-2.13,11.32-3.79,9.9-4.58,18.04-13.24,21.57-27.98h3.47c17.65,0,35.29-.03,52.94.02,5.24.02,10.01-1.12,14.28-4.89,5.36,4.89,12.02,5.2,18.95,4.84,1.49,6.92,4.23,13.05,8.78,18.3,6.03,6.97,13.52,11.33,22.61,12.92.59.1,1.15.37,1.73.57h9.3c3.8-1.22,7.78-2.04,11.35-3.74,12.13-5.78,19.1-15.64,21.58-28.14,6.63,0,13.21,1.14,19.55-1.25,6.79-2.56,10.49-8.01,12.63-14.7v-67.72c-1.47-7.01-3.61-13.84-7.66-19.77ZM87.02,178.74c.18-31.7,25.91-57.36,57.29-57.14,31.42.22,56.93,25.85,56.96,57.24.03,31.54-25.68,57.24-57.21,57.2-31.62-.05-57.22-25.77-57.04-57.29ZM156.72,344.22c-13.88-.05-25.42-11.69-25.33-25.54.1-13.9,11.72-25.32,25.64-25.2,13.96.12,25.22,11.62,25.12,25.67-.09,13.73-11.65,25.13-25.44,25.07ZM258.39,305.73c0,4.83-1.87,6.67-6.83,6.68-18.19.03-36.37-.02-54.56.06-2.06,0-2.74-.69-3.24-2.67-5.73-22.42-29.09-34.86-50.36-26.62-12,4.65-19.83,13.43-23.37,25.91-.28.98-.54,1.97-.9,3.27-4.55,0-8.89.16-13.21-.05-3.77-.18-6.23-3.28-6.24-7.5-.03-12.84-.01-25.67-.01-38.51,0-10.87,0-21.74,0-32.68,32.71,21.44,64.92,22.15,93.64-5.64,23.46-22.71,25.94-50.91,13.37-80.95h3.68c13.64,0,27.28,0,40.92,0,5.12,0,7.13,1.98,7.13,7.13,0,50.52,0,101.04,0,151.56ZM321.76,344.22c-13.81-.09-25.24-11.55-25.28-25.35-.03-13.9,11.57-25.46,25.52-25.4,14,.06,25.31,11.57,25.19,25.64-.12,13.85-11.61,25.2-25.44,25.11ZM370.13,312.4c-2.58,0-5.17-.05-7.75.03-.88.03-1.75.39-2.75.63-1.57-8.8-5.69-16.75-12.88-22.98-7.16-6.21-15.49-9.42-24.94-9.42-16.46,0-33.19,11.19-37.6,31.65-2.39,0-4.87.18-7.3-.05-3.02-.29-5.38-3.04-5.58-6.1-.07-1.03-.04-2.07-.04-3.11,0-38.31,0-76.61,0-114.92,0-7.3,2.04-9.3,9.45-9.31,14.26,0,28.53.29,42.78-.12,7.49-.22,13.19,2.61,18.18,7.68,1.44,1.46,2.75,3.04,4.75,5.26-10.64,0-20.32.05-30-.02-4.98-.04-9.34,1.46-13.1,4.69-3.75,3.22-6.43,7.2-6.55,12.22-.24,9.72-.61,19.47,0,29.15.64,10.11,9.32,17.46,19.5,17.48,19.53.05,39.06.01,58.59.01h4c.06,1.29.15,2.4.15,3.51,0,14.91.02,29.82,0,44.73,0,6.62-2.37,8.99-8.92,9ZM375.41,242.54c-19,0-37.99,0-56.99,0-6.68,0-9.19-2.5-9.2-9.12,0-7.14-.03-14.28,0-21.41.03-5.01,2.62-7.69,7.62-7.72,12.29-.06,24.57-.05,36.86.03.99,0,2.37.45,2.9,1.17,6.13,8.43,12.33,16.82,18.04,25.53,2.13,3.24,3.02,7.3,4.68,11.52h-3.93Z"/>
      </g>
    </g>
  </g>
</svg>