<?xml version="1.0" encoding="UTF-8"?>
<svg id="Capa_2" data-name="Capa 2" xmlns="http://www.w3.org/2000/svg" viewBox="0 0 466 466">
  <defs>
    <style>
      .cls-1 {
        fill: none;
      }

      .cls-1, .cls-2 {
        stroke-width: 0px;
      }

      .cls-2 {
        fill: #f4dfb9;
      }
    </style>
  </defs>
  <g id="Capa_1-2" data-name="Capa 1">
    <g>
      <rect class="cls-1" width="466" height="466"/>
      <g>
        <path class="cls-2" d="M351.6,200.67c-2.64-3-4.93-7.49-5.02-11.36-.49-20.49-.48-41.01-.12-61.51.16-9.05-3.31-12.79-12.43-12.58-16.32.37-32.66.36-48.97,0-7.95-.18-13.21,1.98-13.57,12.49-9.14-8.25-17.26-15.62-25.42-22.94-10.24-9.18-15.82-9.35-25.72-.34-40.72,37.06-81.41,74.16-122.01,111.37-2.99,2.74-5.13,6.4-7.67,9.64v7.7c7.65,15.05,22.43,8.14,35.34,10.98v10.3c0,33.34-.03,66.68.02,100.02.02,12.54,1.24,13.71,13.84,13.74,19.86.04,39.72.06,59.58,0,11.32-.04,12.55-1.33,12.57-12.93.04-21.47.01-42.94.01-65.26h41.95c0,21.21,0,42.27,0,63.33,0,14.28.56,14.85,14.5,14.87,19.54.02,39.08.05,58.62-.01,11.27-.04,12.84-1.53,12.86-12.77.07-33.34.03-66.68.03-100.02v-10.9c12.13-3.89,27.76,4.25,35.34-11.34v-7.7c-7.96-8.21-16.2-16.18-23.74-24.77ZM353.01,226.99c-5.56,0-11.12-.05-16.68.01-10.68.12-12.86,2.23-12.88,13.02-.06,33.67-.02,67.34-.02,101.01v10.61h-53.04c-.17-3.18-.46-6.23-.47-9.28-.04-18.92-.31-37.84.1-56.75.2-8.92-2.8-13-12.12-12.78-16.65.38-33.32.32-49.98.02-8.59-.15-12.11,3.23-11.93,11.98.38,18.91.13,37.84.1,56.75,0,3.12-.27,6.24-.44,9.9h-53.08v-13.52c0-32.07.01-64.13,0-96.2,0-13.38-1.4-14.73-15-14.78-4.7-.02-9.41,0-17.25,0,42.12-38.43,82.1-74.92,122.61-111.88,12.55,11.39,24.36,22.62,36.8,33.08,3.71,3.12,9.21,4.09,13.9,6.04,1.57-4.53,3.36-9,4.61-13.62.65-2.4.34-5.05.5-8.39h41.26c0,15.05,1.18,30.13-.3,44.93-1.86,18.57,2.5,33.29,18.96,43.3,1.92,1.17,3.83,2.37,5.74,3.55-.46,1-.93,2-1.39,2.99Z"/>
        <path class="cls-2" d="M270.87,189.91c-.71-.27-1.54-.3-2.32-.3-9.82-.03-19.63-.03-29.45-.04-.52,0-1.04,0-1.71,0,.74-2.35,1.38-4.42,2.04-6.48,3.84-12.11,7.7-24.22,11.51-36.34.25-.8.36-1.75.19-2.56-.34-1.64-1.65-2.43-3.17-2.73-1.64-.32-2.81.49-3.76,1.8-9.96,13.75-19.94,27.5-29.92,41.24-6.63,9.14-13.29,18.26-19.87,27.44-.65.9-1.09,2.19-1.07,3.29.05,1.79,1.65,2.85,3.77,2.88,8.94.12,17.87.24,26.81.35,1.28.02,2.57,0,3.99,0-.18.66-.27,1.06-.4,1.46-1.75,5.55-3.5,11.1-5.26,16.65-2.62,8.28-5.24,16.56-7.85,24.85-.69,2.2-.13,3.74,1.68,4.72,2.01,1.09,3.65.67,5.15-1.37,13.99-19.07,27.97-38.14,41.95-57.2,2.96-4.03,5.92-8.05,8.87-12.09,1.56-2.14,1.03-4.73-1.17-5.56Z"/>
      </g>
    </g>
  </g>
</svg>