<?xml version="1.0" encoding="UTF-8"?>
<svg id="Capa_2" data-name="Capa 2" xmlns="http://www.w3.org/2000/svg" viewBox="0 0 911.37 381.95">
  <defs>
    <style>
      .cls-1 {
        fill: #2c3f4c;
      }

      .cls-1, .cls-2 {
        stroke-width: 0px;
      }

      .cls-2 {
        fill: #e9d6b3;
      }
    </style>
  </defs>
  <g id="Capa_1-2" data-name="Capa 1">
    <g>
      <path class="cls-2" d="M115.85,236.93c15.97-4.56,26.18,11.01,40.86,11.53,4.53.16,3.17,5.21,3.26,8.19.28,8.81,1.34,17.85-.24,26.38-1.36,7.33,7.6,18.97-5.83,21.64-13.77,2.73-28.6-10.84-29.78-24.58-.44-5.06-.5-10.9-3.09-14.87-3.68-5.62-10.12-8.82-17.37-8.59-8.8.28-5.43,7.71-6.35,12-5.12,23.66,7.1,45.79,29.91,58.05,7.48,4.02,19.68,4.28,19.02,17.68-1.07,21.63-4.79,24.02-25.22,15.56-10.69-4.43-21.13-9.65-32.13-13.12-6.54-2.06-13.52-12.33-21.27,1.97-3.7,6.84-25.02-4.74-24.77-14.15.09-3.32,0-4.73-3.06-5.4-2-.43-4.35-.14-6.01-1.1-9.91-5.68-30.1-7.3-25.71-19.52,3.56-9.92,17.27,5.94,27.32,7.37,1.99.28,3.99.56,8.07,1.13-2.44-25.63-11.43-49.01-16.9-73.06-7.21-31.65-15.4-63.08-23.54-94.51-6.32-24.39-4.26-27.74,21.27-31.13,35.79-4.75,71.59-9.45,107.36-14.28,3.18-.43,6.26-1.64,9.22-4.31-24.64.06-49.14,10.19-74.15-.7,10.21-14.06,26.02-2.9,39.54-7.87-9.89-11.12-18.14-23.01-33.22-29.08,14.43-7.99,24.2,3.08,35.48,5.59,1.58,0,3.16.02,4.74.03-.62-1.34-1.24-2.67-1.86-4.01-2.91-12.66-6.97-24.76-18.16-34.7,18.74-2.87,22.94,15.76,36.87,22.65.14-15.83,2.53-29.55-3.48-44.14,17.25,5.3,15.19,21.12,22.23,33.23,10.28-12.35,14.58-25.65,17.07-40.81,13.04,10.77,3.3,25.7,8.51,39.32,11.22-10.16,23.52-17.37,28.54-33.35,9.17,15.56-3.97,26.13-7.14,40.39,15.76-3.06,29.04-7.61,40.8-19.01,3.09,17.6-15.05,21.27-20.47,33.78,14,4.78,27.64,3.14,42.01-.47-5.16,17.14-22.52,12.89-32.85,22.17,12.38,8.6,25.15,14.52,41.53,14.82-9.64,12.78-23.31,3.75-34.25,10.11,29.68,4.39,58.18,8.09,86.44,13.08,9.38,1.66,19.68,3.73,14.55,19.6-2.89,8.94-1.23,19.18-10.48,27.38-6.09-8.97.13-15.78,2.23-21.29,5.35-14.01-.11-18.48-12.95-20.14-32.36-4.18-64.97-7.22-96.94-13.45-56-10.91-109.85,4.43-164.5,10.31-1.35.14-2.65.67-3.99.9q-41.11,7.1-30.69,46.55c9.55,36.49,18.88,73.04,28.85,111.66,23.59-17.57,45.29-33.74,67-49.9,1.24,1.5,2.48,2.99,3.72,4.49ZM120.83,345.03c-7.06-6.85-14.4-12.78-27.8-13.14,9.16,9.38,17.38,13.63,27.8,13.14ZM57.43,334.83c-2.63-1.79-3.98-3.04-5.58-3.65-.73-.28-2.33.44-2.87,1.19-1.86,2.56.86,3.71,2.24,4.06,1.44.37,3.28-.76,6.21-1.6ZM48.73,327.25c-.39-.42-.87-1.24-1.15-1.17-.84.19-1.61.72-2.41,1.11.39.42.86,1.23,1.15,1.17.85-.17,1.62-.7,2.4-1.11ZM44.01,318.75c-.43-.46-.86-.92-1.29-1.38-.44.45-.89.89-1.33,1.34.65.46,1.29.93,1.94,1.39.22-.45.45-.9.67-1.35Z"/>
      <path class="cls-2" d="M288.75,335.29c1.6,2.56,13.52.61,5.35,5.85-7.03,4.5-17.21,18.99-29.76,1.44-3.83-5.35-19.25,2.39-26.41,10.95l.52-.46c-12.98-.95-22.36,7.85-35.13,11.08,4.39,6.81,11.96,1.34,15.37,8.01-11.63,5.89-22.52,13.55-38.52,7.67,9.79-11.98,17.32-23.66,6.92-39.47-5.55-8.44,5.61-6.06,9.22-7.6,38.51-16.48,48.69-35.94,39.35-77.6-16.76,7.85-35.33,12.7-34.64,37.13.36,12.8-12.43,11.47-19.9,12.45-9.98,1.3-5.95-8.41-6.17-13.29-1.76-39.46-1.6-39.47,34.92-59.21-10.37-10.95-22.29-18.9-36.31-28.04,0,31.36.28,60.19-.26,89-.09,4.99,4.43,14.88-4.95,14.45-8.07-.37-4.12-9.94-4.2-15.22-.45-28.44-.21-56.89-.21-87.17-19.75,7.07-31.41,23.27-48.08,31.68-1.24-1.5-2.48-2.99-3.72-4.49,14.31-11.5,28.57-23.08,42.97-34.46,5.08-4.01,9.87-8.57,7.46-15.29-2.53-7.07-8.57-4.09-13.72-2.81-4.7,1.17-10.61,1.05-12.72-2.8-2.52-4.58,3.03-7.82,5.63-11.66,17.33-25.58,36.17-24.38,52.92.92,2.54,3.84,7.46,7.35,4.16,11.71-1.72,2.27-7.54,2.49-11.28,1.99-5.29-.71-11.21-3.78-14,2.83-2.85,6.76,1.92,11.12,7.13,15.13,35.54,27.39,70.95,54.95,109.26,84.67,7.56-27.44,14.53-52.76,21.51-78.08,1.83.47,3.67.94,5.5,1.41-6.34,38.17-16.49,75.51-28.91,114.35,11.75-.5,19.16-9.49,28.93-12.05,4.14-1.08,8.77-6.97,11.83,0,2.31,5.24-3.06,7.48-6.83,10.67-11.34,9.57-25.83,7.08-38.46,11.35-2.38,2.34-9.29,2.76-6.84,6.51,2.28,3.48,8.11.51,12.1-1.53ZM215.64,346.12c9.3-2.41,19.16-3.83,26.78-16.26-12.25,4.22-21.63,6.23-26.78,16.26Z"/>
      <path class="cls-2" d="M430.2,133.11c14.3,1.44,24.78-1.11,34.34-12.12,6.77-7.8,19.87-5.5,26.83,4.13,7.89,10.92,8.4,23.76-1.86,33.15-8.79,8.05-20.26,7.41-29.66-.75-3.27-2.84-4.85-7.6-8.07-12.9-9.23,17.2-23.54,23.58-40.88,16.1-15.19-6.55-14.87-21.3-13.33-35.15,1.34-12.09,7.99-20.04,20.53-21.74,13-1.76,24.35.17,29.53,17.65-14.51-4.68-29.6-21.92-39.66,0-4.81,10.49-6.51,24.59,7.64,32.07,7.74,4.09,15.78,3.24,22.04-4.17,7.36-8.72-4.82-9.47-7.46-16.28ZM487.85,140.24c-.43-8.12-2.89-14.6-12.73-14.55-10.12.05-11.95,7.03-12.08,14.99-.14,8.35,2.8,14.88,12.43,14.6,9.29-.27,12.52-6.51,12.38-15.04Z"/>
      <path class="cls-2" d="M774.6,311.8c9.95,13.72,20.64,11.2,32.51,4.62-3.78,12.81-12.16,14.29-21.65,12.94-11.43-1.63-15.97-9.97-16.72-20.06-.79-10.71,2.36-20.53,13.65-24.71,14.04-5.19,22.68,2.77,29.8,15.91,5.62-19.86,21.8-20.37,32.38-14.69,17.11,9.17,11.13,27.11,8.84,45.51-8.99-8.82-4.53-17.3-6.2-24.43-1.51-6.45-1.52-14.59-10.82-14.74-9.75-.15-11.87,6.79-12.53,15.08-.56,6.96,2.7,14.65-4.05,22.26-7.59-8.05-.97-18.58-6.4-27.11-10.07,11.99-25.07,3.72-38.82,9.42Z"/>
      <path class="cls-2" d="M569.35,271.27c5.75,17.03,3.05,34.41,3.67,51.58.1,2.92-.85,5.36-4.18,5.75-3.95.46-6.03-2.13-8.02-5.06-6.74-9.98-13.63-19.87-24.28-35.35-.66,14.6-.99,23.38-1.48,32.14-.18,3.21.41,7.6-4.07,7.99-6.42.56-5.18-4.94-5.24-8.54-.23-12.85-.16-25.72-.08-38.57.02-3.92-.97-8.86,3.96-10.41,4.67-1.46,7.11,2.38,9.49,5.85,6.74,9.85,13.69,19.56,22.01,31.4,7.4-13.38.79-26.28,8.23-36.78Z"/>
      <path class="cls-2" d="M704.84,214.57c-.84,2.33-2.4,4.65-2.4,6.98-.05,14.79-5.2,25.92-21.93,25.31-16.67-.61-20.81-12.2-20.36-26.83.12-3.76,4.25-10.45-3.56-10.96-6.32-.41-11.4,2.98-13.67,9.84-2.72,8.19,2.07,17.5-5,26.93-7.32-13.48-3.05-26.52-3.23-39-.02-1.24,2.22-3.08,3.79-3.69,11.44-4.5,22.13,7.99,35.08-.25,13.28-8.46,22.54,4.09,31.68,12.14l-.39-.46ZM681.56,239.35c9.85-1.28,11.82-8.1,11.84-16.13.02-8.53-3.57-15.27-12.85-14.72-8.98.53-12.1,7.35-11.8,15.91.3,8.56,3.58,14.25,12.81,14.94Z"/>
      <path class="cls-2" d="M486.3,231.83c-6.81,14.09-15.31,17.1-26.05,14.56-10.73-2.54-15.57-10.97-16.21-20.95-.64-9.91,2.92-18.63,13.23-22.85,9.16-3.75,17.57-2.18,24.22,4.91,3.64,3.88,6.5,9.09,4.48,14.74-1.69,4.75-6.65,3.37-10.49,4.23-6.66,1.48-15.07-4.18-19.81,4.47-.55,1,1.07,3.77,2.35,5.06,9.05,9.05,15.78-1.78,28.28-4.16Z"/>
      <path class="cls-2" d="M485.43,317.78c-7.48,13.22-18.09,14.29-28.52,10.26-9.54-3.69-14-12.79-12.85-23.08,1.09-9.84,5.46-18.36,16.25-20.73,9.2-2.03,17.93-.36,22.86,8.67,4.68,8.57,7.78,16.88-8.02,16.57-6.4-.12-13.54-2.6-19.14,2.36-.82.73.4,5.45,1.99,6.85,7.05,6.19,13.72,2.21,20.34-1.48.93-.52,2.54.15,7.09.58Z"/>
      <path class="cls-2" d="M619.5,317.63c-5.76,13.26-15.86,13.64-25.76,11.16-10.74-2.69-14.35-11.85-14.25-21.97.1-10,3.53-19.14,14.13-22.22,8.78-2.55,18.06-1.87,23.51,7.01,2.33,3.8,3.94,9.05,3.4,13.34-.86,6.84-7.5,3.27-11.61,4.34-6.05,1.56-13.71-3.8-18.15,3.94-.62,1.08.64,4.1,1.91,5.23,7.11,6.32,13.66,2.79,20.19-1.46.86-.56,2.58.19,6.63.63Z"/>
      <path class="cls-2" d="M438.06,188.83c0,12.56-1.4,25.32.35,37.63,2.24,15.74-5.42,20.08-18.76,20.51-13.09.42-20.49-6.03-21.72-18.77-1.27-13.13,1.02-25.97,17.06-26.75,10.61-.51,17.91-1.27,15.12-18.91,2.65,2.09,5.31,4.19,7.96,6.28ZM418.14,208.04c-8.95,1.77-12.23,7.49-11.95,15.9.27,8.03,2.31,15.21,12.02,15.19,9.83-.02,11.59-7.57,11.86-15.38.29-8.33-3.14-14.12-11.93-15.72Z"/>
      <path class="cls-2" d="M710.37,347.18c-3.19-13.15-9.1-19.39-23.53-19.05-9.38.22-12.94-10.89-13.49-19.93-.56-9.12,2.39-17.67,10.91-22.33,8.96-4.9,18.56-.58,27.84.13.7.05,1.66,3.53,1.61,5.4-.5,18.22,2.14,36.64-3.34,55.79ZM706.13,306.52c-.19-8.17-2.48-15.25-12.37-14.72-9.82.53-11.46,8.44-11.18,16.09.26,7,2.78,13.76,11.54,13.8,9.93.04,11.97-6.97,12.02-15.17Z"/>
      <path class="cls-2" d="M437.97,271.63c0,16.51.57,33.05-.24,49.52-.41,8.33-23.42,11.76-32.23,4.98-9.57-7.36-8.78-17.81-6.89-27.79,1.65-8.71,7.74-15.47,16.98-14.19,11.51,1.59,14.57-5.24,16.77-14.55,1.87.68,3.74,1.36,5.61,2.03ZM430.22,305.74c-.79-6.64-2.2-14.4-12.4-14.04-9.92.36-11.65,7.71-11.57,15.85.08,7.57,2.57,13.78,11.17,14.16,9.99.44,12.29-6.61,12.79-15.98Z"/>
      <path class="cls-2" d="M509.69,103.9c.1,11.9,7.77,14.76,16.18,16.17,8.33,1.4,17.05,2.87,16.45,13.49-.54,9.54,1.41,20.2-9.4,26.97-8.77,5.49-17.17.3-25.71.86-2.87.19-3.64-3.38-3.64-6.18,0-16.53,0-33.06,0-49.59,2.04-.57,4.08-1.15,6.12-1.72ZM535.95,140.71c-1.47-7.48-4.31-14.47-13.56-14.77-9.1-.29-11.32,6.79-11.35,13.8-.03,7.39.84,16.2,11,16.08,8.52-.1,12.44-6.87,13.9-15.11Z"/>
      <path class="cls-2" d="M589.87,245.54c-6.46-17.81-4.56-35.02-3.35-51.7.92-12.57,12.98-5.81,19.9-6.49,10.09-1,19.17,2.12,20.85,14.22,1.3,9.37-.51,20.95-10.39,21-16.58.07-24.91,5.98-27.01,22.97ZM604.62,216.76c6.69-.59,14.02-.55,14.46-10.04.41-8.93-5.12-11.07-12.9-11.53-8.31-.5-12.49,1.81-12.16,10.99.26,7.43,2.39,11.56,10.6,10.58Z"/>
      <path class="cls-2" d="M527.25,215.36c2.57-14.93,12.06-15.11,21.45-14.09,8.39.92,12.55,5.83,13.39,14.9,2.19,23.7-3.29,31.82-22.35,30.94-7.58-.35-13.27-3.23-14.96-11.01-1.76-8.13,3.61-11.87,9.77-15.76,5.53-3.49,19.74,1.77,16.31-7.92-4.04-11.42-14.43.91-23.61,2.93ZM545.31,225.84c-4.86,1.52-12.03.37-12,8.1.02,5.24,4.78,5.96,9.04,5.63,6.05-.47,10.6-3.28,10.46-9.89-.1-4.8-4.01-4.39-7.5-3.84Z"/>
      <path class="cls-2" d="M608.24,151.06c-9.62,15.43-22.17,15.64-33.3,7.59-11.44-8.27-10.89-21.23-3.58-32.68,8.24-12.89,19.7-8.85,30.21-3.4,5.84,3.03,7.91,9.72,6.95,15.71-1.02,6.36-7.48,3.55-11.72,4.36-6.26,1.2-13.76-3.1-18.58,3.61-.82,1.14.82,5.49,2.51,6.67,7.38,5.13,14,1.69,20.43-2.67.8-.55,2.52.23,7.07.81ZM598.5,132.71c-.76-4.75-3.9-6.76-8.37-7.07-4.96-.34-10.26.04-11.57,5.73-1.49,6.48,4.24,5.7,7.87,5.57,4.22-.16,9.77,2.3,12.06-4.23Z"/>
      <path class="cls-2" d="M876.27,214.35c4.2-13.58,13.13-14.4,22.98-12.9,10.42,1.59,11.81,8.96,12.05,17.98.63,22.77-3.48,28.37-22,27.69-7.54-.28-13.46-3.11-15.21-10.89-1.84-8.19,4-11.81,9.91-15.84,5.33-3.64,19.68,2.16,15.9-8.27-3.99-11.01-13.37,1.84-23.64,2.25ZM890.93,239.65c5.92-.45,10.93-2.53,11.44-9.08.31-4.05-2.68-5.86-6.8-4.8-5.01,1.3-11.81.43-12.82,7.52-.8,5.6,3.99,6.02,8.18,6.35Z"/>
      <path class="cls-2" d="M689.41,142.3c.6-19.1,10.43-21.25,24.84-21.2,15.81.06,18.94,9.87,18.46,20.68-.59,13.45-7.98,22.6-23.81,21.35-14.98-1.19-18.93-10.86-19.49-20.83ZM723.58,140.59c-1.32-7.46-2.32-14.97-12.74-14.79-9.95.18-12.46,6.82-12.65,14.72-.2,8.24,3.29,14.66,12.64,14.81,9.69.16,11.98-6.84,12.74-14.74Z"/>
      <path class="cls-2" d="M768.53,248.91c-1.01-18.18-7.19-33.53,2.93-45.01,3.41-3.87,18.14-6.95,26.78-.24,14.42,11.19,8.97,26.24,7.78,43.37-9.87-7.83-5.02-16.39-6.5-23.26-1.65-7.68-4.05-15.53-13.38-14.86-7.84.56-10.19,7.5-10.94,14.9-.71,6.99,2.8,14.72-6.67,25.1Z"/>
      <path class="cls-2" d="M854.42,215.24c-13.33-1.29-22.63-14.21-30.91-.65-4.38,7.18-3.63,14.53,1.64,20.74,8.43,9.94,15.63-.55,26.4-3.23-2.46,12.04-9.44,14.89-18.41,14.95-11.26.08-17.85-6.59-20.07-16.71-2.46-11.23-.9-22.11,11.3-27.33,11.14-4.77,20.71-2.51,30.05,12.23Z"/>
      <path class="cls-2" d="M664.56,282.55c5.45,15.06,4.91,28.82,1.95,40.95-1.92,7.88-14.41,5.26-22.23,5.86-9.79.75-15.27-6.27-16.43-14.77-1.32-9.65-2.28-19.76,1.74-31.29,9.61,7.83,4.67,17.14,5.84,24.85,1,6.58,2.74,12.12,10.13,13.21,9.21,1.36,11.22-5.81,13.31-12.27,2.5-7.75-2.28-17,5.69-26.55Z"/>
      <path class="cls-2" d="M680.84,160.85c-6.67-7.34-3-16.3-5.04-24.33-1.61-6.34-4.75-11.22-12.42-10.73-6.77.43-9.3,5.32-10.06,10.81-1.15,8.25-1.4,16.63-4.06,24.87-6.97-13.45-8.5-28.45-1.62-40.43,2.61-4.55,19.11-7.22,27.72-.74,14.39,10.82,8.84,26.19,5.47,40.55Z"/>
      <path class="cls-2" d="M760.69,285.25c3.14,12.61,3.28,26.13.51,38.45-1.96,8.7-13.59,4.15-20.72,5.59-9.78,1.98-15.56-5.19-17.5-13.38-2.39-10.1-2.96-20.73,1.36-32.79,8.06,6.01,5.35,13.06,5.69,18.96.52,8.98.13,19.3,12.51,19.1,10.96-.17,11.04-9.83,11.42-18.09.27-5.9.68-11.79,1.03-17.68,1.9-.06,3.8-.11,5.7-.17Z"/>
      <path class="cls-2" d="M705.23,215.03c.68-3.85.43-10.5,2.19-11.06,6.99-2.26,6.25,5.06,8.08,8.74,2.7,5.41,4.66,11.18,7.69,18.67,7.23-9.56,6.57-22.19,18.01-30.98-.33,16.77-6.79,29.07-12.53,41.05-3.51,7.33-8.12,3.59-11.53-2.38-4.55-7.96-3.06-18.89-12.29-24.48,0,0,.38.45.38.45Z"/>
      <path class="cls-2" d="M498.04,328.06c-4.1-18.87-4.92-37.55.14-56.21,4.94,18.74,4.39,37.55-.14,56.21Z"/>
      <path class="cls-2" d="M864.45,203.43v41.02c-8.08-13.53-6.62-27.2,0-41.02Z"/>
      <path class="cls-2" d="M555.8,160.81c-5.14-13.81-6.11-27.72-.59-45.57,6.42,17.68,4.1,31.59.59,45.57Z"/>
      <path class="cls-2" d="M753.17,203.82c5.85,13.3,5.93,26.81,1.39,45.82-7.15-18.64-4.22-32.18-1.39-45.82Z"/>
      <path class="cls-2" d="M513.26,243.19c-5.89-18.2-5.13-36.46-.87-54.77,5.76,18.1,4.08,36.44.87,54.77Z"/>
      <path class="cls-2" d="M620.2,161.14c-6.84-13.38-4.62-27.27-.99-41.25,11.23,13.13,2.43,27.4.99,41.25Z"/>
      <path class="cls-2" d="M237.93,353.54c6.1,2.07,12.95-2.98,20.81,3.19-11.11,5.86-20.31,12.47-33.27,8.69,2.07-7.97,11.59-5.52,12.96-12.34,0,0-.51.45-.51.45Z"/>
      <path class="cls-2" d="M115.56,363.49c-18.11,5.87-26.98-1.5-40.65-6.73,16.13-6.87,25.21,1.58,40.65,6.73Z"/>
      <path class="cls-2" d="M114.5,371c15.93-5.42,25.71,1.45,40.85,7.56-18.27,7.08-27.58-1.76-40.85-7.56Z"/>
      <path class="cls-1" d="M111.4,63.77c.62,1.34,1.24,2.67,1.86,4.01-1.58-.01-3.16-.02-4.74-.03.96-1.32,1.92-2.65,2.88-3.98Z"/>
    </g>
  </g>
</svg>