<?xml version="1.0" encoding="UTF-8"?>
<svg id="Capa_2" data-name="Capa 2" xmlns="http://www.w3.org/2000/svg" viewBox="0 0 438.41 102.59">
  <defs>
    <style>
      .cls-1 {
        fill: #009a6b;
      }

      .cls-1, .cls-2, .cls-3 {
        stroke-width: 0px;
      }

      .cls-2 {
        fill: #009a6b;
      }

      .cls-3 {
        fill: #f4dfb9;
      }
    </style>
  </defs>
  <g id="Capa_1-2" data-name="Capa 1">
    <g>
      <path class="cls-2" d="M39.63,49h-6.75c-.67,0-1.18-.59-1.08-1.25l2.39-16.06c.1-.66-.41-1.25-1.08-1.25h-15.99c-.54,0-1,.4-1.08.93l-2.48,16.7c-.08.54-.54.93-1.08.93h-6.75c-.67,0-1.18-.59-1.08-1.26L11,5.25c.08-.54.54-.93,1.08-.93h6.75c.67,0,1.18.59,1.08,1.26l-2.51,16.7c-.1.66.41,1.26,1.08,1.26h15.99c.54,0,1-.4,1.08-.93l2.61-17.35c.08-.54.54-.93,1.08-.93h6.75c.67,0,1.18.59,1.08,1.26l-6.36,42.5c-.08.54-.54.93-1.08.93Z"/>
      <path class="cls-2" d="M69.32,46.97c-.04-.94-1.17-1.38-1.85-.73-.84.81-1.76,1.49-2.76,2.02-1.72.92-3.63,1.38-5.74,1.38-3.38,0-5.9-1.2-7.58-3.59-1.68-2.39-2.15-6.07-1.41-11.02l2.74-18.31c.08-.54.54-.93,1.08-.93h6.72c.67,0,1.18.59,1.08,1.25l-2.7,18.05c-.45,3.01-.36,5.02.26,6.05.62,1.02,1.77,1.53,3.45,1.53,1.39,0,2.64-.25,3.76-.74,1.01-.44,1.89-1.06,2.64-1.86.15-.16.25-.37.28-.6l3.4-22.76c.08-.54.54-.93,1.08-.93h6.75c.67,0,1.18.59,1.08,1.26l-4.64,31.02c-.08.54-.54.93-1.08.93h-5.44c-.58,0-1.07-.46-1.09-1.04l-.04-.98Z"/>
      <path class="cls-2" d="M97.89,49.65c-4.75,0-8.34-1.54-10.77-4.62-2.43-3.08-3.28-6.97-2.55-11.68l.18-1.23c.76-5.16,2.71-9.27,5.85-12.35,3.14-3.08,7.09-4.61,11.86-4.59,4.3,0,7.47,1.38,9.53,4.14,2.06,2.76,2.74,6.42,2.04,10.99l-.54,3.7c-.08.54-.54.94-1.08.94h-18.88l-.06.15c-.25,2.35.14,4.22,1.17,5.6,1.02,1.38,2.76,2.07,5.22,2.07,1.92,0,3.65-.21,5.19-.63,1.15-.31,2.32-.74,3.49-1.28.62-.28,1.34.03,1.53.68l1.01,3.5c.13.46-.04.96-.44,1.22-1.41.89-3.13,1.65-5.17,2.29-2.37.74-4.9,1.1-7.58,1.1ZM102.47,22.16c-2.3-.32-4.61.72-6.01,2.57-.85,1.13-1.49,2.5-1.92,4.12l.06.18h10.86l.09-.68c.31-2,.15-3.55-.48-4.63-.5-.87-1.37-1.38-2.62-1.56Z"/>
      <path class="cls-2" d="M124.94,49h-6.75c-.67,0-1.18-.59-1.08-1.26l6.85-45.69c.08-.54.54-.93,1.08-.93h6.75c.67,0,1.18.59,1.08,1.26l-6.85,45.69c-.08.54-.54.93-1.08.93Z"/>
      <path class="cls-2" d="M141.73,49h-6.75c-.67,0-1.18-.59-1.08-1.26l6.85-45.69c.08-.54.54-.93,1.08-.93h6.75c.67,0,1.18.59,1.08,1.26l-6.85,45.69c-.08.54-.54.93-1.08.93Z"/>
      <path class="cls-2" d="M170.46,49c-.52,0-.96-.37-1.07-.87s-.2-1.01-.26-1.54c-.1-.85-.14-1.71-.12-2.59-1.17,1.64-2.58,2.99-4.25,4.05-1.67,1.06-3.54,1.6-5.63,1.6-3.36,0-5.87-.91-7.55-2.72-1.68-1.81-2.28-4.24-1.81-7.29.49-3.38,2.11-5.93,4.85-7.66,2.74-1.73,6.55-2.59,11.42-2.59h4.09c.54,0,1-.4,1.08-.93l.26-1.71c.25-1.66.02-2.91-.69-3.76-.71-.85-1.9-1.27-3.58-1.27-1.39,0-2.55.35-3.48,1.06-.73.55-1.22,1.27-1.48,2.14-.13.45-.56.76-1.03.76h-7.75l-.03-.18c.31-2.9,1.89-5.35,4.74-7.33s6.39-2.98,10.6-2.98c3.85,0,6.88,1.01,9.11,3.04,2.23,2.03,3.07,4.89,2.52,8.59l-2.06,13.72c-.25,1.62-.35,3.09-.31,4.42.03.92.12,1.85.28,2.79.11.66-.41,1.26-1.08,1.26h-6.76ZM162.31,43.02c1.49,0,2.93-.39,4.3-1.18,1.28-.73,2.23-1.57,2.85-2.51.09-.14.14-.29.17-.45l.48-3.16c.1-.66-.41-1.26-1.08-1.26h-3.76c-1.82,0-3.31.48-4.47,1.44-1.16.96-1.84,2.11-2.04,3.44-.18,1.17.04,2.07.68,2.72.63.64,1.6.97,2.88.97Z"/>
      <path class="cls-2" d="M.35,80.27c.7-4.76,2.24-8.51,4.62-11.25,2.38-2.74,5.39-4.11,9.04-4.11,1.42,0,2.66.33,3.73.98.9.55,1.68,1.3,2.34,2.25.13.19.43.13.47-.1l2.08-13.86c.14-.93.94-1.62,1.88-1.62h3.85c1.27,0,2.24,1.13,2.05,2.38l-5.92,39.45c-.02.13-.13.22-.25.22h-6.24c-.14,0-.25-.11-.26-.25l-.1-2.69c0-.23-.29-.33-.45-.15-1,1.11-2.1,1.97-3.3,2.6-1.37.71-2.86,1.06-4.47,1.06-3.43,0-5.98-1.33-7.64-3.99-1.66-2.66-2.17-6.11-1.52-10.35l.08-.57ZM8.11,80.84c-.41,2.64-.3,4.67.35,6.09.65,1.42,1.95,2.13,3.91,2.13,1.11,0,2.13-.24,3.06-.71.91-.47,1.69-1.13,2.34-2.01.03-.04.05-.08.05-.13l1.84-12.19c0-.05,0-.11-.02-.15-.39-.88-.96-1.57-1.71-2.07-.76-.51-1.7-.77-2.82-.77-1.83,0-3.35.87-4.54,2.6-1.2,1.73-1.99,3.95-2.39,6.64l-.08.57Z"/>
      <path class="cls-2" d="M43.12,95.18c-4.17,0-7.32-1.35-9.46-4.06-2.14-2.7-2.88-6.12-2.24-10.25l.16-1.08c.66-4.53,2.38-8.14,5.13-10.85,2.76-2.7,6.23-4.05,10.42-4.03,3.77,0,6.56,1.21,8.37,3.64,1.81,2.43,2.4,5.64,1.79,9.65l-.31,2.15c-.16,1.1-1.11,1.92-2.22,1.92h-15.47l-.05.13c-.22,2.07.13,3.71,1.02,4.92.9,1.21,2.43,1.82,4.58,1.82,1.69,0,3.21-.18,4.55-.55.94-.26,1.88-.6,2.83-1.02.68-.3,1.46.07,1.67.78l.49,1.69c.34,1.17-.05,2.18-.9,2.64-1.06.58-2.3,1.08-3.71,1.52-2.08.65-4.3.97-6.66.97ZM47.05,71.02c-1.9-.23-3.83.58-5.02,2.07-.82,1.02-1.44,2.3-1.84,3.82l.05.16h9.54l.08-.59c.27-1.76.13-3.12-.42-4.07-.45-.78-1.25-1.24-2.39-1.38Z"/>
      <path class="cls-2" d="M105.11,81.62l.05.16c-.58,4.35-2.33,7.67-5.26,9.96-2.93,2.29-6.74,3.44-11.43,3.44s-8.05-1.53-10.58-4.58c-2.52-3.05-3.44-6.95-2.74-11.7l1.19-7.79c.74-4.96,2.73-8.92,5.97-11.87,3.24-2.96,7.18-4.43,11.82-4.43s8.11,1.18,10.54,3.54c2.43,2.36,3.29,5.64,2.59,9.82l-.08.16h-5.16c-1.29,0-2.29-1.05-2.33-2.33-.05-1.44-.41-2.56-1.1-3.35-1.02-1.19-2.81-1.78-5.36-1.78-2.26,0-4.22.96-5.88,2.88-1.65,1.92-2.7,4.36-3.15,7.3l-1.19,7.84c-.47,3.13-.15,5.62.96,7.47,1.1,1.85,2.91,2.78,5.4,2.78,2.26,0,4.09-.62,5.48-1.87,1.04-.94,1.8-2.23,2.28-3.88.3-1.03,1.19-1.77,2.26-1.77h5.72Z"/>
      <path class="cls-2" d="M143.06,78.52c-.77,5.01-2.89,9.04-6.35,12.09-3.46,3.05-7.65,4.57-12.57,4.57-4.65,0-8.3-1.59-10.94-4.76-2.64-3.17-3.6-7.14-2.88-11.9l1.05-7.06c.74-4.98,2.83-9,6.27-12.06,3.44-3.06,7.61-4.6,12.52-4.6s8.36,1.59,11.02,4.78c2.66,3.19,3.64,7.15,2.94,11.87l-1.05,7.06ZM136.27,71.41c.47-3.16.09-5.7-1.15-7.6-1.23-1.9-3.2-2.86-5.92-2.86-2.57,0-4.77.99-6.59,2.96-1.82,1.98-2.96,4.47-3.41,7.49l-1.05,7.12c-.49,3.22-.13,5.78,1.05,7.68,1.19,1.9,3.14,2.86,5.85,2.86s4.81-.99,6.66-2.96c1.85-1.98,3.02-4.5,3.5-7.57l1.05-7.12Z"/>
      <path class="cls-2" d="M172.87,94.61h-26.03c-.16,0-.28-.14-.25-.29l.67-4.77c0-.06.03-.11.07-.15l14.01-13.68c2.12-2.14,3.66-3.95,4.62-5.43.96-1.48,1.54-2.84,1.74-4.08.22-1.67,0-2.98-.67-3.92-.67-.94-1.82-1.41-3.45-1.41s-3.03.63-4.18,1.89c-1.11,1.21-1.8,2.7-2.07,4.47-.02.12-.12.22-.25.22h-7.41l-.05-.16c.41-3.61,1.97-6.59,4.68-8.95,2.7-2.35,6.09-3.53,10.15-3.53s6.8,1.04,8.81,3.11c2.01,2.08,2.78,4.83,2.32,8.26-.36,2.44-1.26,4.58-2.71,6.41-1.45,1.83-4,4.53-7.67,8.09l-7.57,7.73.08.16h16.01l-.84,6.04Z"/>
      <path class="cls-3" d="M248.89,95.17h-6.92c-3.11,0-5.92-1.82-7.19-4.66l-26.32-58.62-.39.06-8.41,56.48c-.58,3.86-3.89,6.73-7.8,6.73h-2.86c-4.82,0-8.51-4.29-7.8-9.05l11.68-78.04c.58-3.86,3.89-6.72,7.8-6.72h6.91c3.11,0,5.92,1.82,7.2,4.66l26.26,58.55.39-.06,8.46-56.43c.58-3.86,3.9-6.72,7.8-6.72h2.87c4.82,0,8.51,4.29,7.8,9.05l-11.69,78.04c-.58,3.86-3.89,6.72-7.8,6.72Z"/>
      <path class="cls-3" d="M343.14,11.44c-6.36-7.62-15.14-11.44-26.35-11.44s-21.7,3.66-29.93,10.99c-8.23,7.32-13.22,16.94-14.98,28.83l-2.51,16.88c-1.72,11.38.58,20.87,6.9,28.45,6.31,7.58,15.03,11.37,26.16,11.37,3.69,0,7.26-.39,10.7-1.16,1.72-.39,3.39-.86,5.03-1.43,3.04-1.06,6.42-.06,8.52,2.38l3.05,3.54c2.68,3.11,7.29,3.65,10.61,1.24l1.08-.79c3.72-2.7,4.35-7.99,1.38-11.49l-2.11-2.49c-2.24-2.63-2.56-6.46-.65-9.34,1.39-2.09,2.61-4.32,3.68-6.69,1.87-4.17,3.19-8.7,3.96-13.59l2.51-16.88c1.68-11.3-.67-20.76-7.02-28.38Z"/>
      <path class="cls-1" d="M290.63,75.06c-2.84-4.55-3.67-10.67-2.51-18.36l1.51-10.2c1.48,1.58,3.36,3.93,4.66,6.76,1.75,3.81,4.08,6.06,6.94,6.67,2.45.52,4.72-.3,6.24-1.12v17.22c0,.12.02.23.06.33v5.33c-.95.12-1.92.21-2.92.21-6.49,0-11.15-2.28-13.98-6.83Z"/>
      <path class="cls-1" d="M328.9,56.7c-1.16,7.35-3.95,13.38-8.38,18.11-3.1,3.31-6.64,5.44-10.61,6.43v-16.5c1.52.82,3.78,1.64,6.24,1.12,2.86-.61,5.19-2.85,6.94-6.67,2.11-4.61,5.77-7.94,6.73-8.77l-.93,6.29Z"/>
      <path class="cls-1" d="M331.41,39.69l-1.24,8.36-.89.03c-6.22.19-13.97.43-17.57,3.35-.73.59-1.37,1.27-1.92,2.03-.29-2.4-1.26-5.63-4.13-7.95-3.2-2.59-9.65-3.07-15.41-3.28l.37-2.54c1.07-7.22,3.79-13.19,8.15-17.91,4.36-4.72,9.61-7.09,15.75-7.09,6.49,0,11.2,2.28,14.14,6.83,2.94,4.55,3.85,10.61,2.74,18.17Z"/>
      <path class="cls-3" d="M418.84,95.17h-6.92c-3.11,0-5.92-1.82-7.19-4.66l-26.32-58.62-.39.06-8.41,56.48c-.58,3.86-3.89,6.73-7.8,6.73h-2.86c-4.82,0-8.51-4.29-7.8-9.05l11.68-78.04c.58-3.86,3.89-6.72,7.8-6.72h6.91c3.11,0,5.92,1.82,7.2,4.66l26.26,58.55.39-.06,8.46-56.43c.58-3.86,3.9-6.72,7.8-6.72h2.87c4.82,0,8.51,4.29,7.8,9.05l-11.69,78.04c-.58,3.86-3.89,6.72-7.8,6.72Z"/>
    </g>
  </g>
</svg>