<?xml version="1.0" encoding="UTF-8"?>
<svg id="Capa_2" data-name="Capa 2" xmlns="http://www.w3.org/2000/svg" viewBox="0 0 334.78 457">
  <defs>
    <style>
      .cls-1 {
        fill: #2b3e4c;
      }

      .cls-1, .cls-2, .cls-3, .cls-4 {
        stroke-width: 0px;
      }

      .cls-2 {
        fill: #89b968;
      }

      .cls-3 {
        fill: #fff;
      }

      .cls-4 {
        fill: #f4dfb9;
      }
    </style>
  </defs>
  <g id="Capa_1-2" data-name="Capa 1">
    <g>
      <path class="cls-2" d="M147.99,447c-23.62,0-47.08-8.63-64.37-23.69-18.53-16.14-12.55-39.58-6.23-64.41,8.26-32.41,18.53-72.74-9.62-122.52-21.7-38.37-28.79-73.21-20.7-101.27-12.94-8.27-23.7-20.86-30.04-35.35-8.44-19.27-9.34-40.4-2.46-57.95,5.06-12.91,14.13-22.75,25.55-27.73,5.64-2.46,11.74-3.7,18.14-3.7,23.79,0,48.55,17.64,60.67,43.07,4.19-24.77,22.04-43.45,43.31-43.45h.16c23.1.1,43,23.38,44.66,51.49,8.69-10.67,21.31-17.21,34.1-17.21,5.92,0,11.49,1.38,16.55,4.11,15.98,8.61,22.96,29.39,17.68,48.73,1.92-.33,3.85-.5,5.78-.5,8.66,0,16.38,3.28,21.76,9.24,10.11,11.2,9.23,28.95-1.25,41.98,6.86.8,12.91,3.92,16.94,8.83,10.34,12.6,7.32,31.74-6.89,43.57-5.01,4.17-11.12,6.8-17.54,7.59-3.26,21.19-15.89,41.42-28.15,61.04-13.36,21.38-25.97,41.57-25.97,60.89,0,38.65-9.51,68.79-28.3,89.58-16.12,17.84-38.77,27.67-63.78,27.67Z"/>
      <path class="cls-4" d="M162.25,20h.11c18.54.08,34.54,20.61,34.81,44.66.09,7.91-1.77,15.52-5.01,22.15-.73,1.49,0,3.3,1.59,3.79,2.89.89,5.76,1.86,8.6,2.92.31.12.63.17.94.17,1.39,0,2.62-1.1,2.68-2.59.25-5.72,1.73-11.58,4.59-16.89,6.69-12.44,18.98-19.92,30.61-19.92,4.11,0,8.14.93,11.81,2.91,13.97,7.53,18.46,28.23,9.76,45.04-3.23,6.24-8.2,11.22-13.93,14.57-1.57.92-1.81,3.09-.46,4.32,1.09,1,2.17,2.02,3.22,3.05.54.53,1.23.79,1.92.79.97,0,1.92-.51,2.38-1.47,1.69-3.49,4.23-6.86,7.56-9.85,5.19-4.66,11.67-7.02,17.75-7.02,5.54,0,10.75,1.97,14.34,5.94,7.64,8.47,5.38,23.21-4.99,32.58-4.37,3.95-9.2,6.35-13.95,7.2-1.78.32-2.8,2.19-2.02,3.83,1.01,2.13,1.96,4.3,2.84,6.52.43,1.08,1.44,1.68,2.48,1.68.6,0,1.21-.2,1.73-.62.01,0,.02-.02.03-.02,4.98-4.05,11-6.09,16.49-6.09,5.13,0,9.81,1.78,12.76,5.38,6.89,8.39,4.48,21.18-5.56,29.54-4.45,3.7-10.02,5.54-15.3,5.54-.73,0-1.45-.03-2.16-.1-.09,0-.18-.01-.27-.01-1.42,0-2.61,1.11-2.69,2.56-2.35,43.21-54.84,85.88-54.84,129.23.01,78-41.23,107.25-82.08,107.25-21.36,0-42.62-8.01-57.8-21.23-32.92-28.67,38.4-92.16-13.72-184.31-23.72-41.94-27.17-74.77-18.07-98.74.48-1.27-.06-2.69-1.27-3.32-12.67-6.6-24.37-18.61-30.95-33.64-12.96-29.59-4.79-62.6,17.93-72.51,4.47-1.95,9.25-2.87,14.14-2.87,19.84,0,41.55,15.16,52.18,38.51,3.65,8.03,5.52,16.54,5.81,24.86.05,1.48,1.26,2.62,2.68,2.62.18,0,.37-.02.56-.06,2.97-.62,5.99-1.14,9.06-1.56,1.67-.23,2.68-1.92,2.16-3.52-1.74-5.28-2.71-10.98-2.69-16.79.07-24.24,15.64-44.44,34.24-44.44M129.56,421.11c.14,0,.34-.09.62-.32-.35-.12-.7-.27-1.05-.41.09.4.16.73.43.73M162.25,0h0c-19.37,0-36.44,12.2-46.03,30.5C101.15,11.91,79.75.38,58.27.38c-7.78,0-15.23,1.53-22.14,4.54C22.26,10.96,11.3,22.77,5.27,38.17c-7.84,20.01-6.89,43.93,2.61,65.61,6.13,13.99,15.95,26.44,27.86,35.58-2.49,12.18-2.61,25.32-.34,39.22,3.19,19.48,11.15,40.59,23.67,62.73,26.18,46.29,16.86,82.86,8.64,115.13-3.25,12.76-6.32,24.8-6.56,36.18-.34,15.88,5.01,28.74,15.91,38.24,19.08,16.62,44.93,26.14,70.93,26.14,27.87,0,53.16-11,71.2-30.97,9.95-11.01,17.62-24.59,22.8-40.38,5.36-16.32,8.08-35.13,8.07-55.91,0-16.45,11.87-35.46,24.45-55.59,11.54-18.47,23.4-37.45,28.22-57.96,5.59-1.69,10.84-4.5,15.39-8.28,18.49-15.39,22.1-40.69,8.22-57.59-2.72-3.31-6.05-6.04-9.82-8.11,6.1-14.75,4.29-31.45-6.18-43.05-6.02-6.67-14.12-10.87-23.25-12.13.25-5.04-.14-10.09-1.21-15.03-3.08-14.23-11.63-26.04-23.44-32.41-6.44-3.47-13.8-5.3-21.29-5.3-9.63,0-19.16,2.96-27.53,8.22-2.51-7.83-6.3-15.12-11.24-21.45C192.02,7.74,177.46.07,162.45,0h-.2Z"/>
    </g>
    <g>
      <ellipse class="cls-3" cx="110.59" cy="176.34" rx="47.86" ry="46.34"/>
      <ellipse class="cls-1" cx="110.2" cy="176.32" rx="24.82" ry="26.83"/>
      <ellipse class="cls-3" cx="123.06" cy="161.93" rx="10.7" ry="11.4"/>
    </g>
    <g>
      <ellipse class="cls-3" cx="225.87" cy="176.34" rx="47.86" ry="46.34"/>
      <ellipse class="cls-1" cx="225.48" cy="176.32" rx="24.82" ry="26.83"/>
      <ellipse class="cls-3" cx="238.34" cy="161.93" rx="10.7" ry="11.4"/>
    </g>
    <path class="cls-3" d="M110.55,254.76c4.93,2.66,20.38,10.3,46.12,12.42,7.3.6,22.42,1.76,39.02-1.55,13.77-2.75,21.83-7.3,25.14-9.46l.9,2.34c-3.24,11.43-12.26,22.22-26.04,30.67-16.69,10.24-31.72,6.83-39.02,4.92-25.74-6.73-41.03-30.66-45.96-39.1l-.16-.24Z"/>
  </g>
</svg>