<?xml version="1.0" encoding="UTF-8"?>
<svg id="Capa_2" data-name="Capa 2" xmlns="http://www.w3.org/2000/svg" viewBox="0 0 249 249">
  <defs>
    <style>
      .cls-1 {
        fill: #f4dfb9;
        stroke-width: 0px;
      }
    </style>
  </defs>
  <g id="Capa_1-2" data-name="Capa 1">
    <g>
      <path class="cls-1" d="M124.5,0C55.74,0,0,55.74,0,124.5s55.74,124.5,124.5,124.5,124.5-55.74,124.5-124.5S193.26,0,124.5,0ZM124.5,230c-58.17,0-105.5-47.33-105.5-105.5S66.33,19,124.5,19s105.5,47.33,105.5,105.5-47.33,105.5-105.5,105.5Z"/>
      <rect class="cls-1" x="37.55" y="105.52" width="19.39" height="46.93"/>
      <path class="cls-1" d="M47.24,82.01c-7.12,0-11.67,4.29-11.67,9.87s4.55,9.87,11.67,9.87,11.67-4.29,11.67-10.21c0-5.58-4.55-9.52-11.67-9.52Z"/>
      <path class="cls-1" d="M98.12,104.66c-5.49,0-10.47,1.8-14.16,5.49v-4.63h-18.45v46.93h19.39v-22.05c0-6.95,3.35-9.44,7.29-9.44,3.52,0,5.75,2.23,5.75,8.06v23.42h19.39v-26.77c0-14.76-8.41-21.02-19.22-21.02Z"/>
      <path class="cls-1" d="M146.68,108c0-3.78,1.89-5.41,4.63-5.41,1.54,0,3.09.51,4.38,1.12l4.63-13.47c-2.83-1.54-7.38-2.32-11.5-2.32-13.38,0-20.94,7.81-20.94,19.91v.26h-6.43v14.16h6.43v30.2h19.39v-30.2h9.61v-14.16h-10.21v-.09Z"/>
      <path class="cls-1" d="M186.66,104.66c-15.87,0-27.28,10.04-27.28,24.28s11.41,24.37,27.28,24.37,27.29-10.12,27.29-24.37-11.33-24.28-27.29-24.28ZM186.66,138.21c-4.29,0-7.64-3.17-7.64-9.27s3.35-9.18,7.64-9.18,7.64,3.09,7.64,9.18-3.35,9.27-7.64,9.27Z"/>
      <polygon class="cls-1" points="115.86 81.21 133.14 81.21 133.14 65.85 148.98 65.85 148.98 49.53 133.14 49.53 133.14 34.17 115.86 34.17 115.86 49.53 100.02 49.53 100.02 65.85 115.86 65.85 115.86 81.21"/>
    </g>
  </g>
</svg>