<?xml version="1.0" encoding="UTF-8"?>
<svg id="Capa_2" data-name="Capa 2" xmlns="http://www.w3.org/2000/svg" viewBox="0 0 249 249">
  <defs>
    <style>
      .cls-1 {
        fill: #f4dfb9;
        stroke-width: 0px;
      }
    </style>
  </defs>
  <g id="Capa_1-2" data-name="Capa 1">
    <path class="cls-1" d="M124.5,0C55.85,0,0,55.85,0,124.5s55.85,124.5,124.5,124.5,124.5-55.85,124.5-124.5S193.15,0,124.5,0ZM53.69,205.31v-15.35c0-17.06,13.88-30.94,30.94-30.94h78.88c17.06,0,30.94,13.88,30.94,30.96l.04,16.04c-18.82,16.18-43.28,25.97-69.99,25.97s-51.88-10.08-70.81-26.69ZM88.46,98.2c0-19.63,15.97-35.61,35.61-35.61s35.61,15.97,35.61,35.61-15.97,35.61-35.61,35.61-35.61-15.97-35.61-35.61ZM211.39,187.71c-1.18-25.39-22.21-45.68-47.88-45.68h-10.38c14.18-9.43,23.55-25.55,23.55-43.83,0-29.01-23.6-52.61-52.61-52.61s-52.61,23.6-52.61,52.61c0,18.27,9.37,34.39,23.55,43.83h-10.38c-25.31,0-46.09,19.72-47.81,44.6-12.48-17.56-19.82-39-19.82-62.13,0-59.28,48.22-107.5,107.5-107.5s107.5,48.22,107.5,107.5c0,23.61-7.66,45.46-20.61,63.21Z"/>
  </g>
</svg>