<?xml version="1.0" encoding="UTF-8"?>
<svg id="Capa_2" data-name="Capa 2" xmlns="http://www.w3.org/2000/svg" viewBox="0 0 294.93 204.12">
  <defs>
    <style>
      .cls-1 {
        fill: #009a6b;
      }

      .cls-1, .cls-2, .cls-3 {
        stroke-width: 0px;
      }

      .cls-2 {
        fill: #2b3e4c;
      }

      .cls-3 {
        fill: #f4dfb9;
      }
    </style>
  </defs>
  <g id="Capa_1-2" data-name="Capa 1">
    <g>
      <path class="cls-1" d="M250.61,62.32c-4.57,0-8.95.78-13.03,2.2-14.69-35.11-49.37-59.78-89.81-59.78s-75.24,24.75-89.89,59.96c-4.23-1.53-8.79-2.37-13.55-2.37-21.95,0-39.74,17.79-39.74,39.74s17.79,39.74,39.74,39.74c4.76,0,9.32-.84,13.55-2.37,14.65,35.2,49.38,59.96,89.89,59.96s75.12-24.67,89.81-59.78c4.08,1.42,8.47,2.2,13.03,2.2,21.95,0,39.74-17.79,39.74-39.74s-17.79-39.74-39.74-39.74Z"/>
      <path class="cls-3" d="M250.25,57.39c-3.43,0-6.83.39-10.15,1.17C223.29,22.84,187.52,0,147.76,0S72.15,22.88,55.35,58.68c-3.48-.86-7.06-1.29-10.68-1.29C20.04,57.39,0,77.43,0,102.06s20.04,44.67,44.67,44.67c3.62,0,7.2-.43,10.68-1.29,16.79,35.79,52.57,58.68,92.4,58.68s75.53-22.84,92.35-58.56c3.32.78,6.72,1.17,10.15,1.17,24.63,0,44.67-20.04,44.67-44.67s-20.04-44.67-44.67-44.67ZM250.25,136.59c-3.86,0-7.67-.64-11.33-1.91l-4.5-1.56-1.84,4.39c-14.35,34.3-47.65,56.47-84.83,56.47s-70.58-22.23-84.9-56.63l-1.86-4.47-4.55,1.65c-3.77,1.37-7.73,2.06-11.78,2.06-19.04,0-34.53-15.49-34.53-34.53s15.49-34.53,34.53-34.53c4.04,0,8,.69,11.78,2.06l4.55,1.65,1.86-4.47c14.32-34.4,47.64-56.63,84.9-56.63s70.48,22.16,84.83,56.47l1.84,4.39,4.5-1.56c3.65-1.27,7.46-1.91,11.33-1.91,19.04,0,34.53,15.49,34.53,34.53s-15.49,34.53-34.53,34.53Z"/>
      <polygon class="cls-3" points="98.59 53.94 110.5 53.94 110.5 64.69 116.57 64.69 116.57 38.47 110.5 38.47 110.5 48.81 98.59 48.81 98.59 38.47 92.53 38.47 92.53 64.69 98.59 64.69 98.59 53.94"/>
      <path class="cls-3" d="M129.04,64.99c2.47,0,4.72-.94,6.25-2.7v2.4h5.54v-20.15h-5.84v9.96c0,3.71-1.95,5.43-4.64,5.43s-4.08-1.5-4.08-4.87v-10.52h-5.84v11.38c0,6.22,3.56,9.06,8.61,9.06Z"/>
      <path class="cls-3" d="M154.43,64.99c3.63,0,6.44-1.12,8.31-3.26l-3.11-3.37c-1.39,1.31-2.92,1.95-5.06,1.95-3.07,0-5.2-1.53-5.77-4.04h15.24c.04-.49.11-1.12.11-1.57,0-6.48-4.57-10.45-10.48-10.45s-10.75,4.34-10.75,10.37,4.53,10.37,11.5,10.37ZM153.72,48.66c2.62,0,4.53,1.65,4.94,4.19h-9.92c.41-2.58,2.32-4.19,4.98-4.19Z"/>
      <rect class="cls-3" x="166.22" y="36.9" width="5.84" height="27.78"/>
      <rect class="cls-3" x="175.66" y="36.9" width="5.84" height="27.78"/>
      <path class="cls-3" d="M183.79,58.88c0,3.48,2.81,6.1,7.53,6.1,2.96,0,5.05-.97,6.14-2.81v2.51h5.47v-11.5c0-6.1-3.56-8.95-9.7-8.95-3.22,0-6.48.86-8.69,2.43l2.1,4.08c1.46-1.16,3.67-1.87,5.8-1.87,3.15,0,4.64,1.46,4.64,3.97h-4.64c-6.14,0-8.65,2.47-8.65,6.03ZM197.08,56.26v2.06c-.67,1.83-2.36,2.73-4.31,2.73-2.06,0-3.29-.97-3.29-2.43,0-1.35.86-2.36,3.59-2.36h4.01Z"/>
      <polygon class="cls-3" points="115.17 152.01 99.61 133 93.61 133 93.61 164.31 100.77 164.31 100.77 145.3 116.38 164.31 122.33 164.31 122.33 133 115.17 133 115.17 152.01"/>
      <path class="cls-3" d="M157.84,166.14c-1.57,0-2.91-.58-4.43-2.19,6.66-2.15,11.18-7.96,11.18-15.3,0-9.35-7.29-16.19-17.13-16.19s-17.13,6.89-17.13,16.19c0,8.5,6.04,14.98,14.63,16.06,4.83,5.1,8.1,6.8,12.75,6.8,3.44,0,6.4-1.34,8.45-3.85l-3.22-3.85c-1.48,1.57-3.18,2.33-5.1,2.33ZM137.67,148.65c0-5.95,4.2-10.02,9.8-10.02s9.8,4.07,9.8,10.02-4.2,10.02-9.8,10.02-9.8-4.07-9.8-10.02Z"/>
      <polygon class="cls-3" points="194.16 152.01 178.59 133 172.6 133 172.6 164.31 179.75 164.31 179.75 145.3 195.36 164.31 201.31 164.31 201.31 133 194.16 133 194.16 152.01"/>
      <path class="cls-2" d="M42.88,94.59c2.7,0,5.08,1.27,6.68,4.08l6.68-3.59c-2.15-4.86-7.06-7.56-13.3-7.56-9.66,0-16.56,6.35-16.56,15.29s6.9,15.29,16.56,15.29c6.24,0,11.15-2.76,13.3-7.51l-6.68-3.64c-1.6,2.87-3.97,4.08-6.68,4.08-4.36,0-7.78-3.03-7.78-8.22s3.42-8.22,7.78-8.22Z"/>
      <path class="cls-2" d="M74.28,87.52c-4.75,0-9.55,1.27-12.8,3.59l3.09,6.02c2.15-1.71,5.41-2.76,8.55-2.76,4.64,0,6.84,2.15,6.84,5.85h-6.84c-9.05,0-12.75,3.64-12.75,8.89s4.14,9,11.09,9c4.36,0,7.45-1.43,9.05-4.14v3.7h8.06v-16.94c0-9-5.24-13.19-14.29-13.19ZM79.97,108.27c-.99,2.7-3.48,4.03-6.35,4.03-3.04,0-4.86-1.43-4.86-3.59,0-1.99,1.27-3.48,5.3-3.48h5.9v3.04Z"/>
      <path class="cls-2" d="M97.46,87.96v29.69h8.61v-14.02c0-5.68,3.15-8.28,7.89-8.28.66,0,1.21.06,1.93.11v-7.95c-4.58,0-8.11,1.49-10.21,4.36v-3.92h-8.22Z"/>
      <path class="cls-2" d="M122.13,76.71v40.95h8.22v-3.42c2.15,2.59,5.35,3.86,9.33,3.86,8.33,0,14.79-5.96,14.79-15.29s-6.46-15.29-14.79-15.29c-3.7,0-6.73,1.16-8.94,3.59v-14.4h-8.61ZM138.19,94.59c4.31,0,7.56,3.09,7.56,8.22s-3.26,8.22-7.56,8.22-7.56-3.09-7.56-8.22,3.26-8.22,7.56-8.22Z"/>
      <path class="cls-2" d="M159.11,102.81c0,8.94,6.9,15.29,16.34,15.29s16.28-6.35,16.28-15.29-6.84-15.29-16.28-15.29-16.34,6.35-16.34,15.29ZM175.44,94.59c4.3,0,7.56,3.09,7.56,8.22s-3.26,8.22-7.56,8.22-7.62-3.09-7.62-8.22,3.31-8.22,7.62-8.22Z"/>
      <path class="cls-2" d="M216.61,87.52c-4.03,0-7.51,1.38-9.82,3.92v-3.48h-8.22v29.69h8.61v-14.68c0-5.46,2.98-8,7.12-8,3.81,0,6.02,2.21,6.02,7.01v15.67h8.61v-17c0-9.05-5.3-13.13-12.31-13.13Z"/>
      <path class="cls-2" d="M252.26,87.52c-9.44,0-16.34,6.35-16.34,15.29s6.9,15.29,16.34,15.29,16.28-6.35,16.28-15.29-6.84-15.29-16.28-15.29ZM252.26,111.03c-4.3,0-7.62-3.09-7.62-8.22s3.31-8.22,7.62-8.22,7.56,3.09,7.56,8.22-3.26,8.22-7.56,8.22Z"/>
    </g>
  </g>
</svg>