<?xml version="1.0" encoding="UTF-8"?>
<svg id="Capa_2" data-name="Capa 2" xmlns="http://www.w3.org/2000/svg" viewBox="0 0 294.93 204.12">
  <defs>
    <style>
      .cls-1 {
        fill: #009a6b;
      }

      .cls-1, .cls-2, .cls-3 {
        stroke-width: 0px;
      }

      .cls-2 {
        fill: #2b3e4c;
      }

      .cls-3 {
        fill: #f4dfb9;
      }
    </style>
  </defs>
  <g id="Capa_1-2" data-name="Capa 1">
    <g>
      <path class="cls-1" d="M250.61,62.32c-4.57,0-8.95.78-13.03,2.2-14.69-35.11-49.37-59.78-89.81-59.78s-75.24,24.75-89.89,59.96c-4.23-1.53-8.79-2.37-13.55-2.37-21.95,0-39.74,17.79-39.74,39.74s17.79,39.74,39.74,39.74c4.76,0,9.32-.84,13.55-2.37,14.65,35.2,49.38,59.96,89.89,59.96s75.12-24.67,89.81-59.78c4.08,1.42,8.47,2.2,13.03,2.2,21.95,0,39.74-17.79,39.74-39.74s-17.79-39.74-39.74-39.74Z"/>
      <path class="cls-3" d="M250.25,57.39c-3.43,0-6.83.39-10.15,1.17C223.29,22.84,187.52,0,147.76,0S72.15,22.88,55.35,58.68c-3.48-.86-7.06-1.29-10.68-1.29C20.04,57.39,0,77.43,0,102.06s20.04,44.67,44.67,44.67c3.62,0,7.2-.43,10.68-1.29,16.79,35.79,52.57,58.68,92.4,58.68s75.53-22.84,92.35-58.56c3.32.78,6.72,1.17,10.15,1.17,24.63,0,44.67-20.04,44.67-44.67s-20.04-44.67-44.67-44.67ZM250.25,136.59c-3.86,0-7.67-.64-11.33-1.91l-4.5-1.56-1.84,4.39c-14.35,34.3-47.65,56.47-84.83,56.47s-70.58-22.23-84.9-56.63l-1.86-4.47-4.55,1.65c-3.77,1.37-7.73,2.06-11.78,2.06-19.04,0-34.53-15.49-34.53-34.53s15.49-34.53,34.53-34.53c4.04,0,8,.69,11.78,2.06l4.55,1.65,1.86-4.47c14.32-34.4,47.64-56.63,84.9-56.63s70.48,22.16,84.83,56.47l1.84,4.39,4.5-1.56c3.65-1.27,7.46-1.91,11.33-1.91,19.04,0,34.53,15.49,34.53,34.53s-15.49,34.53-34.53,34.53Z"/>
      <g>
        <path class="cls-3" d="M100.21,53.94h8.68c.89,0,1.61.72,1.61,1.61v7.52c0,.89.72,1.61,1.61,1.61h2.84c.89,0,1.61-.72,1.61-1.61v-22.99c0-.89-.72-1.61-1.61-1.61h-2.84c-.89,0-1.61.72-1.61,1.61v7.11c0,.89-.72,1.61-1.61,1.61h-8.68c-.89,0-1.61-.72-1.61-1.61v-7.11c0-.89-.72-1.61-1.61-1.61h-2.84c-.89,0-1.61.72-1.61,1.61v22.99c0,.89.72,1.61,1.61,1.61h2.84c.89,0,1.61-.72,1.61-1.61v-7.52c0-.89.72-1.61,1.61-1.61Z"/>
        <path class="cls-3" d="M129.04,64.99c2.47,0,4.72-.94,6.25-2.7v.78c0,.89.72,1.61,1.61,1.61h2.32c.89,0,1.61-.72,1.61-1.61v-16.92c0-.89-.72-1.61-1.61-1.61h-2.62c-.89,0-1.61.72-1.61,1.61v8.35c0,3.71-1.95,5.43-4.64,5.43s-4.08-1.5-4.08-4.87v-8.91c0-.89-.72-1.61-1.61-1.61h-2.62c-.89,0-1.61.72-1.61,1.61v9.77c0,6.22,3.56,9.06,8.61,9.06Z"/>
        <path class="cls-3" d="M154.43,64.99c2.87,0,5.23-.7,7.02-2.05.76-.57.85-1.68.21-2.38l-1.01-1.09c-.53-.57-1.39-.7-2.04-.27-1.13.75-2.41,1.12-4.03,1.12s-2.93-.41-3.94-1.16c-1.22-.92-.53-2.88,1-2.88h10.91c.87,0,1.61-.69,1.61-1.56,0,0,0,0,0-.01,0-6.48-4.57-10.45-10.48-10.45s-10.75,4.34-10.75,10.37,4.53,10.37,11.5,10.37ZM153.72,48.66c1.53,0,2.82.56,3.71,1.54s.14,2.66-1.23,2.66h-5c-1.38,0-2.16-1.65-1.23-2.66s2.19-1.53,3.75-1.53Z"/>
        <rect class="cls-3" x="166.22" y="36.9" width="5.84" height="27.78" rx="1.61" ry="1.61"/>
        <rect class="cls-3" x="175.66" y="36.9" width="5.84" height="27.78" rx="1.61" ry="1.61"/>
        <path class="cls-3" d="M183.79,58.88c0,3.48,2.81,6.1,7.53,6.1,2.96,0,5.05-.97,6.14-2.81v.9c0,.89.72,1.61,1.61,1.61h2.24c.89,0,1.61-.72,1.61-1.61v-9.88c0-6.1-3.56-8.95-9.7-8.95-2.61,0-5.25.57-7.33,1.62-.78.4-1.06,1.38-.66,2.16l.61,1.19c.4.78,1.35,1.1,2.14.71,1.31-.65,2.91-1.03,4.46-1.03,1.83,0,3.1.49,3.84,1.4.84,1.02.03,2.57-1.3,2.57h-2.54c-6.14,0-8.65,2.47-8.65,6.03ZM197.08,57.87v.12c0,.22-.04.44-.13.64-.74,1.63-2.34,2.42-4.18,2.42-2.06,0-3.29-.97-3.29-2.43,0-1.35.86-2.36,3.59-2.36h2.39c.89,0,1.61.72,1.61,1.61Z"/>
      </g>
      <g>
        <path class="cls-3" d="M109.77,143.82l-8.94-10.91c-.47-.58-1.18-.91-1.92-.91h-3.8c-1.37,0-2.49,1.11-2.49,2.49v28.34c0,1.37,1.11,2.49,2.49,2.49h4.19c1.37,0,2.49-1.11,2.49-2.49v-7.79c0-2.33,2.93-3.38,4.41-1.58l8.98,10.94c.47.57,1.18.91,1.92.91h3.76c1.37,0,2.49-1.11,2.49-2.49v-28.34c0-1.37-1.11-2.49-2.49-2.49h-4.18c-1.37,0-2.49,1.11-2.49,2.49v7.77c0,2.34-2.93,3.38-4.41,1.57Z"/>
        <path class="cls-3" d="M162.21,163.13c-1.28,1.35-2.71,2.01-4.37,2.01-.93,0-1.72-.25-2.53-.83,6.3-2.7,10.29-8.68,10.29-15.66,0-9.8-7.79-17.19-18.13-17.19s-18.13,7.39-18.13,17.19c0,8.52,5.84,15.31,14.35,16.87.51.09.99.34,1.36.71,4.56,4.61,7.96,6.27,12.66,6.27,3.72,0,7-1.5,9.23-4.21l.53-.64-4.48-5.35-.77.82ZM147.46,157.67c-5.18,0-8.79-3.71-8.79-9.02s3.62-9.02,8.79-9.02,8.79,3.71,8.79,9.02-3.62,9.02-8.79,9.02Z"/>
        <path class="cls-3" d="M193.16,134.48v7.77c0,2.34-2.93,3.38-4.41,1.57l-8.94-10.91c-.47-.58-1.18-.91-1.92-.91h-3.8c-1.37,0-2.49,1.11-2.49,2.49v28.34c0,1.37,1.11,2.49,2.49,2.49h4.19c1.37,0,2.49-1.11,2.49-2.49v-7.79c0-2.33,2.93-3.38,4.41-1.58l8.98,10.94c.47.57,1.18.91,1.92.91h3.76c1.37,0,2.49-1.11,2.49-2.49v-28.34c0-1.37-1.11-2.49-2.49-2.49h-4.18c-1.37,0-2.49,1.11-2.49,2.49Z"/>
      </g>
      <g>
        <path class="cls-2" d="M42.88,94.59c2.46,0,4.64,1.05,6.22,3.35.28.41.84.53,1.28.29l5-2.69c.5-.27.67-.89.4-1.39-2.34-4.27-7.01-6.63-12.84-6.63-9.66,0-16.56,6.35-16.56,15.29s6.9,15.29,16.56,15.29c5.82,0,10.49-2.4,12.83-6.58.28-.49.11-1.12-.39-1.39l-4.99-2.72c-.44-.24-1.01-.12-1.29.29-1.58,2.33-3.76,3.34-6.22,3.34-4.36,0-7.78-3.03-7.78-8.22s3.42-8.22,7.78-8.22Z"/>
        <path class="cls-2" d="M74.28,87.52c-4.37,0-8.8,1.08-12.01,3.06-.45.28-.63.85-.38,1.32l2.16,4.2c.27.53.93.7,1.43.38,2.1-1.33,4.92-2.12,7.65-2.12,4.14,0,6.35,1.72,6.77,4.72.08.6-.4,1.13-1,1.13h-5.77c-9.05,0-12.75,3.64-12.75,8.89s4.14,9,11.09,9c3.16,0,5.65-.75,7.39-2.19.67-.55,1.66-.11,1.66.75h0c0,.55.45,1,1,1h6.05c.55,0,1-.45,1-1v-15.94c0-9-5.24-13.19-14.29-13.19ZM79.97,108.07c0,.13-.02.27-.07.39-1.04,2.58-3.47,3.84-6.27,3.84-3.04,0-4.86-1.43-4.86-3.59,0-1.99,1.27-3.48,5.3-3.48h4.9c.55,0,1,.45,1,1v1.83Z"/>
        <path class="cls-2" d="M97.46,88.97v27.69c0,.55.45,1,1,1h6.6c.55,0,1-.45,1-1v-13.02c0-5.68,3.15-8.28,7.89-8.28.31,0,.59.01.88.03.57.04,1.06-.43,1.06-1v-5.84c0-.58-.5-1.03-1.08-1-3.07.17-5.62,1.05-7.52,2.62-.64.53-1.62.05-1.62-.79v-.41c0-.55-.45-1-1-1h-6.22c-.55,0-1,.45-1,1Z"/>
        <path class="cls-2" d="M122.13,77.71v38.95c0,.55.45,1,1,1h6.22c.55,0,1-.45,1-1v-.08c0-.84.95-1.29,1.62-.78,2.02,1.54,4.63,2.3,7.71,2.3,8.33,0,14.79-5.96,14.79-15.29s-6.46-15.29-14.79-15.29c-2.87,0-5.35.7-7.34,2.15-.67.49-1.6.03-1.6-.8v-11.17c0-.55-.45-1-1-1h-6.61c-.55,0-1,.45-1,1ZM138.19,94.59c4.31,0,7.56,3.09,7.56,8.22s-3.26,8.22-7.56,8.22-7.56-3.09-7.56-8.22,3.26-8.22,7.56-8.22Z"/>
        <path class="cls-2" d="M159.11,102.81c0,8.94,6.9,15.29,16.34,15.29s16.28-6.35,16.28-15.29-6.84-15.29-16.28-15.29-16.34,6.35-16.34,15.29ZM175.44,94.59c4.3,0,7.56,3.09,7.56,8.22s-3.26,8.22-7.56,8.22-7.62-3.09-7.62-8.22,3.31-8.22,7.62-8.22Z"/>
        <path class="cls-2" d="M216.61,87.52c-3.19,0-6.04.87-8.23,2.49-.66.49-1.59.02-1.59-.8v-.24c0-.55-.45-1-1-1h-6.22c-.55,0-1,.45-1,1v27.69c0,.55.45,1,1,1h6.6c.55,0,1-.45,1-1v-13.68c0-5.46,2.98-8,7.12-8,3.81,0,6.02,2.21,6.02,7.01v14.67c0,.55.45,1,1,1h6.6c.55,0,1-.45,1-1v-16c0-9.05-5.3-13.13-12.31-13.13Z"/>
        <path class="cls-2" d="M252.26,87.52c-9.44,0-16.34,6.35-16.34,15.29s6.9,15.29,16.34,15.29,16.28-6.35,16.28-15.29-6.84-15.29-16.28-15.29ZM252.26,111.03c-4.3,0-7.62-3.09-7.62-8.22s3.31-8.22,7.62-8.22,7.56,3.09,7.56,8.22-3.26,8.22-7.56,8.22Z"/>
      </g>
    </g>
  </g>
</svg>