<?xml version="1.0" encoding="UTF-8"?>
<svg id="Capa_2" data-name="Capa 2" xmlns="http://www.w3.org/2000/svg" viewBox="0 0 985.6 415.57">
  <defs>
    <style>
      .cls-1 {
        fill: #e9d6b3;
        stroke-width: 0px;
      }
    </style>
  </defs>
  <g id="Capa_1-2" data-name="Capa 1">
    <g>
      <path class="cls-1" d="M342.85,274.35c-.01-6.09-.11-12.18,0-18.27.27-14.35-5.27-29.37,22.64-21.63,13.13,3.64,31.56-7.99,47.01,4.79,3.38,2.8,6.72-3.15,10.2-4.82,26.22-12.5,46.45-.22,47.11,28.93.29,12.85.14,25.72.02,38.58-.07,7.73,2.54,16.48-11.26,16.09-12.5-.35-9.94-8.28-10.07-15.24-.22-11.5.24-23.02-.22-34.51-.42-10.41-4.31-19.27-16.64-18.71-11.45.52-13.69,9.69-14.01,18.94-.39,11.49-.04,23.01-.19,34.51-.09,7.11,2.05,14.92-10.33,15-11.57.08-11.42-6.27-11.24-14.23.23-10.15.03-20.3.05-30.46.03-11.39-.86-23.72-15.62-23.65-15.28.08-14.59,13.43-15.03,24.19-.43,10.81-.49,21.67-.04,32.48.37,8.88-3.32,11.71-12.07,11.58-8.29-.13-10.6-3.64-10.38-11.09.33-10.82.08-21.66.07-32.49Z"/>
      <path class="cls-1" d="M47.56,12.41c14.49-.98,28.38,3.6,38.33,16.49,3.38,4.38,10.35,10.57,3.93,15.59-5.79,4.53-14.91,8.76-21.62-.54-6.73-9.32-15.75-12.46-26.81-10.96-6.59.9-12.48,3.98-13.55,10.54-1.22,7.45,5.47,10.49,11.27,12.38,10.36,3.37,21.11,5.54,31.48,8.87,14.09,4.53,23.93,13.08,24.02,29.08.09,15.18-7.59,25.64-21.13,31.95-22.73,10.61-55.44,3.64-66.74-14.74-3.07-5-10.25-12.35-1.82-17.23,6.17-3.58,15.02-6.93,21.27,3.37,8.37,13.79,21.46,15.44,35.79,10.44,5.51-1.92,9.28-5.89,8.91-12.23-.32-5.39-3.62-8.44-8.73-9.93-8.5-2.49-16.93-5.21-25.43-7.7C10.63,70.19,2.53,60.75,5,40.69,7.17,23.02,22.23,12.65,47.56,12.41Z"/>
      <path class="cls-1" d="M225.33,316.86c11.11-35.93,21.92-69.94,32.06-104.15,4.13-13.94,15.04-7.83,23.48-9.12,8.62-1.32,13.4,1.78,16.03,10.88,8.61,29.77,18.48,59.18,27.21,88.92,1.27,4.34,7.85,12.43-3.34,13.97-6.93.95-16.04,3.02-17.42-8.05-1.73-13.85-9.74-17.45-22.59-16.23-12.68,1.21-27.67-4.64-30.69,16.26-1.84,12.72-13.12,7.84-24.75,7.51ZM276.7,226.46c-4.4,13.08-7.84,21.45-9.91,30.14-1.19,4.99-7.63,12.11.49,15.29,5.76,2.25,14.53,2.29,19.66-.63,5.72-3.26,1.16-10.65-.57-16.08-2.57-8.04-5.37-16-9.66-28.72Z"/>
      <path class="cls-1" d="M83.64,260.59c0,5.4.61,10.88-.12,16.18-1.83,13.43,6.62,36.45-4.7,38.49-20.09,3.63-44.24,13.23-63.88-4.37-16.03-14.36-17.26-33.04-12.5-52.3,4.78-19.34,23.4-32.61,43.03-28.84,12.13,2.33,16.26.48,14.81-11.67-1.12-9.36.87-15.06,12.81-14.87,12.17.2,10.53,7.54,10.54,14.85.03,14.17,0,28.34.01,42.51ZM63.07,274.51c-.27-11.9-1.8-24.65-18.3-25.24-17.18-.61-21.45,12.24-21.43,25.82.02,12.69,3.98,25.05,20.01,25.18,16.2.13,19.56-11.51,19.73-25.76Z"/>
      <path class="cls-1" d="M572.92,274.67c-.02,32.27-21.71,49.93-53.13,43.26-.66-.14-1.3-.41-1.97-.54q-27.49-5.27-27.49-35.44c0-22.29.29-44.58-.13-66.85-.16-8.65,2.74-11.84,11.68-11.76,8.46.08,10.95,3.89,10.05,11.11-1.79,14.26,2.07,17.69,17.77,15.1,24.12-3.99,43.24,17.84,43.23,45.12ZM509.73,274.75c.6,13.79,3.64,25.61,19.96,25.57,16.3-.04,20.3-13.02,20.33-25.17.03-13.1-4.44-26.52-21.76-25.91-16.61.59-17.86,13.55-18.54,25.51Z"/>
      <path class="cls-1" d="M610.2,92.58c0,4.74.09,9.47-.02,14.21-.32,13.3,3.5,31.36-20.53,16.54-2.28-1.41-8.17,3.28-12.52,4.75-20.11,6.82-37.79.24-42.51-15.7-5.27-17.81,3.4-29.79,25.76-35.61,3.95-1.03,8.02-1.78,11.78-3.29,4.96-1.99,15.63,2.23,13.93-6.48-1.72-8.79-11.96-6.35-19.35-5.52-.67.08-1.5.15-1.94.57-8.65,8.06-22.48,10.65-25.32.47-3.25-11.62,10.57-18.65,22.56-21.03,35.39-7.01,48.16,6.66,48.17,51.09ZM587.72,98.29c.9-7.33-2.63-8.94-7.2-7.52-9.15,2.83-22.29-.01-24.96,13.04-1.54,7.53,5.35,10.03,12.2,9.66,10.78-.58,17.31-6.48,19.96-15.18Z"/>
      <path class="cls-1" d="M900.67,274.39c.38-25.74,17.88-44.56,42.49-45.68,21.88-.99,38.8,14.97,42.11,38.64,1.36,9.74-1.32,13.8-11.51,13.44-12.92-.46-25.87-.17-38.8,0-3.13.04-7.27-1.14-8.88,2.64-1.91,4.5,1.45,7.95,4.41,10.45,8.94,7.56,18.93,8.15,27.6.32,9.07-8.18,18.79-3.16,22.99,2.05,4.06,5.04-4.5,11.77-9.92,15.48-15.28,10.5-31.5,11.41-48.1,2.7-16.26-8.54-22.43-22.59-22.41-40.05ZM960.43,263.55c1.15-9.92-4.29-13.96-12.77-14.66-10.3-.85-18.61,1.98-21.38,14.66h34.15Z"/>
      <path class="cls-1" d="M715.35,295.36c-14.59,24.49-36.31,31.16-59.43,19.37-21.79-11.11-29.68-37.73-18.2-61.33,10.15-20.87,33.45-29.6,55.25-20.99,17.88,7.06,22.87,22.01,24.69,38.89.96,8.88-5.1,9.54-11.89,9.45-12.3-.17-24.6-.21-36.89.09-3.6.09-8.95-1.94-10.1,3.68-1.05,5.11,2.09,9.18,6.33,11.75,6.91,4.18,15.67,5.6,21.26.48,9.56-8.76,18.27-5.81,28.98-1.38ZM658.84,263.48h35.84c-2.7-9.05-6.53-14.59-15.55-14.69-9.35-.11-17.63,1.52-20.29,14.69Z"/>
      <path class="cls-1" d="M99.67,275.92c-.15-26.67,17.82-46.43,42.99-47.21,22.27-.69,38.52,15.15,41.64,38.97,1.35,10.32-2.13,13.43-11.84,13.11-12.23-.4-24.49-.26-36.73.04-3.6.09-8.9-1.98-10.18,3.52-1.2,5.15,2.16,9.19,6.28,11.69,8.32,5.04,17.78,5.48,24.63-1.16,8.82-8.55,20.21-4.4,23.19.4,4.8,7.73-5.2,13.76-11.68,17.87-15,9.52-30.74,9.48-46.37,1.01-15.23-8.27-21.6-21.57-21.94-38.24ZM160.4,263.36c-.64-10.59-6.56-14.72-16-14.56-9.49.16-17.39,2.69-18.21,14.69,11.58,1.56,22.73,1.79,34.21-.13Z"/>
      <path class="cls-1" d="M406.24,130.39c-18.7-.43-32.82-8.23-40.22-25.78-7.45-17.69-5.12-34.66,6.83-49.52,12.09-15.02,29.03-16.93,46.52-12.95,16.36,3.72,29.38,24.02,28.26,40.66-.51,7.6-4.88,8.68-10.88,8.68-12.27,0-24.55-.18-36.81.2-4.25.13-10.68-2.09-11.55,4.76-.78,6.17,4.19,9.82,9.28,11.94,7.32,3.05,15.04,2.97,21.1-2.63,8.53-7.89,18.93-5.97,23.09,1.19,4.94,8.51-6.11,12.99-12.27,17.49-6.84,5-14.98,6.16-23.36,5.97ZM406.41,76.57c5.3-2.86,15.53,4.96,16.28-5.48.6-8.44-8.04-12.28-15.92-11.98-8.27.32-18.53,3.36-17.53,12.81.92,8.78,11.32,2.26,17.18,4.65Z"/>
      <path class="cls-1" d="M152.31,40.7c13.4-.82,25.28,4.61,33.07,17.3,5.41,8.81,9.98,19.56,5.96,28.8-4.24,9.75-15.85,3.42-24.12,4.56-6.01.83-12.29-.36-18.34.33-5.36.61-14.4-3.49-14.81,5.45-.4,8.6,7.44,12.03,15.55,12.82,6.45.63,11.57-1.75,16.66-5.91,7.87-6.43,17.57-3.18,21.53,3.24,3.78,6.13-4.65,11.29-9.95,15.17-15.26,11.16-38.15,10.78-53.42-.67-14.73-11.04-21.04-32.6-15.01-51.26,6.08-18.81,21.11-29.63,42.89-29.84ZM150.8,76.77c5.37-3.56,16.56,5,17.17-6.29.43-7.94-8.53-11.93-16.52-11.4-7.44.49-16.87,2.89-16.77,11.52.12,11,10.6,3.11,16.12,6.18Z"/>
      <path class="cls-1" d="M818.29,93.51c0,6.09-.44,12.23.09,18.27,1.28,14.48-4.01,22.36-18.11,13.75-8.99-5.49-11.91,2.99-17.93,3.66-13.89,1.54-27.73,3.55-37.15-9.74-6.91-9.76-6.8-20.46-.11-30.44,7.18-10.7,19.8-10.72,30.51-14.64,5.98-2.19,14.38,1.84,17.83-6.41.45-1.08-1.29-3.95-2.73-4.75-7.09-3.97-15.61-4.5-21.16.58-8.83,8.09-19.41,6.2-22.7-.66-4.21-8.77,6.34-15.02,13.94-18.84,29.63-14.87,57.09,2.04,57.51,35,.06,4.74,0,9.48,0,14.22ZM795.9,89.84c-13,3.02-27.74-.85-33.19,14.46-1.83,5.14,4.05,9.22,10.46,9.2,14.73-.05,21.22-8.08,22.73-23.66Z"/>
      <path class="cls-1" d="M734.65,273.03c0-6.09.12-12.18-.03-18.26-.38-14.89-2.32-31.11,21.74-19.4,2.12,1.03,6.17-1.89,9.35-2.91,30.06-9.69,47.58,1.89,49.7,33.44.86,12.8.09,25.69.56,38.53.32,8.68-1.22,13.57-12.03,13.63-12.23.08-10.65-7.25-10.68-14.63-.04-11.5.19-23-.28-34.48-.44-10.67-5.61-18.86-17.01-19.11-12.28-.26-18.39,8.03-19.02,19.52-.67,12.14-.57,24.35-.12,36.51.31,8.33-1.99,12.05-11.31,12.11-9.82.06-11.15-4.72-10.94-12.51.3-10.81.08-21.64.07-32.46Z"/>
      <path class="cls-1" d="M246.83,130.38c-21.08-.33-35.07-11.16-39.92-30.91-5.58-22.73,1.72-43.86,18.54-53.66,15.1-8.8,40.29-6.71,51.46,5.11,4.56,4.82,13.49,11.14,5.84,18.01-5.11,4.59-14.27,7.84-21.6-1.17-7.81-9.6-18.87-10.23-26.61-1.34-9.86,11.32-9.81,25.78-.52,37.43,7.21,9.05,18.26,9.85,26.58.41,8.06-9.14,18.04-6.67,23.01-.8,5.36,6.32-3.16,12.98-8.35,17.98-7.89,7.6-17.98,9.01-28.44,8.93Z"/>
      <path class="cls-1" d="M499.09,129.81c-19.21-1.08-29.7-9.04-29.42-27.8.12-8.11.02-16.23,0-24.34,0-3.38-.39-6.79-.05-10.13,1.13-11.12-23.3-6.14-13.97-20.76,4.2-6.59,17.89-5.98,14.36-19.62-2.02-7.81,5.05-7.79,10.65-8,6.23-.24,11.22,1.08,10.28,8.68-1.49,12.07,4.59,15.62,15.5,14.58,5.74-.54,8.82,1.99,9,8.08.21,7.1-3.25,9.93-9.96,9.21-12.03-1.29-16.36,4.76-14.29,15.55,2.3,11.99-7.94,28.74,10.96,34.52,7.45,2.28,14.97,1.06,13.26,12.24-1.9,12.44-11.96,5.03-16.31,7.79Z"/>
      <path class="cls-1" d="M872.11,318.66c-20.92-.58-28.91-8.44-29.43-28.67-.24-9.49,0-19-.08-28.49-.05-6.04.35-10.78-8.42-13.22-11.52-3.21-11.67-12.64-.3-15.48,10.53-2.63,8.82-8.59,8.64-14.81-.23-7.95,3.06-10.59,10.87-10.64,7.93-.05,11.55,2.82,10.6,10.65-1.22,10.12,2.11,15.5,13.41,14.15,5.6-.67,10.85-.35,10.93,7.91.07,7.69-4.07,9.39-10.28,8.74-10.56-1.1-16.13,3.17-13.82,13.75,2.75,12.59-8.99,30.18,10.88,36.8,7.43,2.47,15.22,1.67,13,12.64-2.12,10.47-10.87,4.94-15.97,6.66Z"/>
      <path class="cls-1" d="M629.73,85.53c0-8.76-.03-17.52,0-26.28,0-3.37,0-6.74.21-10.1.32-5.17,6.32-8.43,7.96-6.35,12.92,16.4,31.47-10.99,42.85,5.78,2.73,4.03,2.7,12.61-6.76,13.46-19.06,1.73-22.32,14.35-21.62,30.15.39,8.74-.17,17.52.06,26.28.22,8.45-4.81,9.86-11.8,9.96-7.52.11-11.28-2.52-10.99-10.55.39-10.77.1-21.56.09-32.35Z"/>
      <path class="cls-1" d="M304.03,84.59c0-8.1.11-16.2-.02-24.3-.26-14.89,1.24-26.47,19.86-12.74,7.26,5.35,11.46-4.82,18.28-4.63,5.45.15,11.6-2.29,12.43,5.69.56,5.46,2.79,12.48-7.06,13.57-18.48,2.05-22.5,14.45-21.54,30.48.52,8.74-.18,17.55.11,26.31.24,7.2-3.47,9.4-9.98,9.41-6.66.02-12.3-.46-12.08-9.38.29-11.47.07-22.94.07-34.42-.02,0-.05,0-.07,0Z"/>
      <path class="cls-1" d="M719.38,85.43c0,10.81-.27,21.63.09,32.43.27,8.08-3.65,10.56-11.13,10.56-7.51,0-11.3-2.58-11.2-10.6.25-21.62.23-43.25.04-64.87-.07-7.89,3.58-10.7,11.19-10.66,7.57.04,11.32,2.75,11.09,10.7-.32,10.8-.08,21.62-.08,32.43Z"/>
      <path class="cls-1" d="M764.79,367.09c7.99,9.74,12.59,15.34,19.12,23.3.92-7.25,1.58-12.48,2.47-19.54,9.26,6.69,3.46,15.93,7.78,23.63,10.16-5.23,20.45-10.33,30.53-15.8,3.38-1.84,3.98-8.71,10.75-2.51,5.11,4.68,8.19,8.92,6.7,15.03-1.02,4.16-3.97,10.64-6.85,11.09-12.1,1.9-4.97-11.88-11.29-15.38-8.2,21.5-25.68,26.6-43.64,10.88-12.69-11.11-8.73,5.39-15.44,7.25-3.16-11.22-2.1-21.93-.12-37.95Z"/>
      <path class="cls-1" d="M613.68,275.14c0,10.83-.33,21.66.1,32.47.32,8.15-3.38,10.21-11,10.3-8.19.1-10.51-3.21-10.4-10.79.31-21.65.37-43.3-.01-64.95-.14-8.16,3.23-10.26,10.9-10.3,8.12-.04,10.75,3.19,10.5,10.79-.36,10.81-.09,21.65-.1,32.47Z"/>
      <path class="cls-1" d="M276.04,384.55c.91-.07,6.12-.58,11.34-.8,4.43-.18,10.7-2.35,11.4,4.28.51,4.89-1.13,10.56-3.47,15.02-2.54,4.85-9,5.32-12.55,2.58-6.96-5.36-11.72-7.35-19.36-.2-4.03,3.78-11.85,1.92-16.09-3.89-3.45-4.72-3.98-9.97-1.4-15.23,3.73-7.58,9.4-1.39,14.14-1.7,3.88-.26,7.8-.05,16-.05Z"/>
      <path class="cls-1" d="M176.71,409c-2.99-12.63-6.88-23.36.66-28.38,6.03-4.02,17.14-2.9,24.12,3.63,6.91,6.46,6.74-2.66,10.02-3.99,6.38-2.59,12.04-2.6,16.54,2.99,4.85,6.03,4.81,12.76.08,18.61-4.97,6.15-11.16,6.72-17.94,1.92-2.63-1.86-7.47-4.29-8.29-5.06-17.03-16.06-16.82-16.28-25.17,10.28Z"/>
      <path class="cls-1" d="M3.06,406.59c-.32-14.01-1.82-24.39,1.34-35.6,9.28,5.11,9.03,14.84,16.13,20.47,1.44-1.51,3.09-3.17,4.67-4.9,4.3-4.7,2.84-17.2,13.13-13.29,11.92,4.53,9.03,16.55,8.1,26.4-.2,2.1-4.38,5.85-4.72,5.64-7.62-4.71-15.5-4.87-24.36-5.05-6.65-.14-6.58-3.34-14.3,6.33Z"/>
      <path class="cls-1" d="M363.44,404.84c-6.19-5.01,1.32-17.94-8.53-18.34-10.65-.44-3.26,12.67-11.48,19.55-1.66-9.99-5.12-19.96,1.81-25.65,5.14-4.22,16.09-4.46,20.83,5.22,3.85,7.85,5.51.96,7.54-.96,13.73-13.01,19.68-4.78,24.48,9.31-6.19.59-11.9,1.14-17.88,1.72,2.91,8.09,10.26.66,13.77,5.68-5.91,7.71-13.56,7.96-18.48.8-7.66-11.13-7.95,3.38-12.06,2.67Z"/>
      <path class="cls-1" d="M922.19,401.78c-1.53-9.58-1.83-18.6.15-27.86,10.06,2.2,2.48,12.67,8.91,16.44,6.46-9.18,14-19.49,24.33-5.38,2.62,3.58,16.33,6.39,6.66,14.44-6.62,5.51-18.23,13.83-24.47,2.96-6.71-11.68-10.34-1.56-15.58-.6Z"/>
      <path class="cls-1" d="M443.37,396.51c-2.06,6.13,3.42,19.02-8.48,17.91-13.32-1.25-8.7-17.1-13.09-25.93-3.31-6.66,3.76-9.82,10.98-9.87,13.58-.08,9.56,9.9,10.59,17.88Z"/>
      <path class="cls-1" d="M563.73,386.53c-9.91,3.46-2.41,11.81-5.28,18.49-7.15-5.23-14.36-20.09-23.11-.88,4.29-9.69-8.55-23.1,6.5-27.82,7.82-2.46,20.73-5.59,21.55,10.52,0,0,.34-.31.34-.31Z"/>
      <path class="cls-1" d="M855.28,403.39c13.74-3.56,6.22-15.16,10.63-23.51,4.72,5.43,18.5-.13,14.5,14.55-3.59,13.18-13.71,11.51-25.12,8.96Z"/>
      <path class="cls-1" d="M689.02,392.54c9.37,4.38,6.79-5.57,9.9-8.51,5.65-5.35,11.35-7.92,17.88-2.84,5.01,3.9,7.73,9.31,4.98,16.05-2.94,7.22-11.59,13.26-15.12,8.51-5.71-7.68-19.22,2.71-19.87-10.58.81-.82,1.56-1.7,2.24-2.63ZM715.79,392.65c-.1-3.77-1.79-6.94-5.59-7.09-5.04-.2-6.83,3.4-6.5,8,.28,3.87,2.54,6.34,6.43,6.07,3.95-.28,5.46-3.31,5.66-6.97Z"/>
      <path class="cls-1" d="M718.31,0c7.52,0,10.83,2.34,7.99,7.2-4.95,8.49-3.16,22.14-17.4,23.82-5.73.67-7.47-3.01-5.37-7.38C707.8,14.79,707.41,2.36,718.31,0Z"/>
      <path class="cls-1" d="M473.97,406.34c-7.86,2.09-10.31-2.75-10.68-8.56-.51-8.06,8.29-11.7,12.38-14.14,6.52-3.89,9.22,3.77,9.64,10.68.53,8.68-2.92,12.67-11.34,12.02Z"/>
      <path class="cls-1" d="M916.19,394.6c1.67,9.61-3.97,11.72-11.88,12.02-6.12.23-12.29-1.07-11.49-7.93,1.05-8.97,11.53-9.88,17.57-13.47,5.79-3.44,5.15,5.24,5.79,9.38Z"/>
      <path class="cls-1" d="M602.6,385.97c1.42,15.16-6.08,18.58-17.63,11.09-6.83-4.43-18.4,1.01-21.23-10.54,0,0-.34.32-.35.32,13.81,10.99,25.01-1.74,37.35-4.07.54,1.11,1.16,2.18,1.85,3.2Z"/>
      <path class="cls-1" d="M498.94,380.21c7.39.9,7.99,20.92,20.22,2.78-.81,13.69-6.03,22.89-11.68,32.58,1.55-12.84-8.45-22.83-8.54-35.36Z"/>
      <path class="cls-1" d="M319.23,406.36c-11.49-29.63-8.02-36.34,16.03-34.77-.82,11.02-11.09,4.48-16.74,9.27,22.73,9.74-6.46,16.08.72,25.5Z"/>
      <path class="cls-1" d="M602.15,220.23c-8.49,1.17-9.69-3.69-9.78-10.76-.1-8.51,4.49-9.44,11.44-9.59,8.45-.18,9.78,4.19,9.96,11.18.23,8.73-4.72,9.84-11.63,9.16Z"/>
      <path class="cls-1" d="M158.5,394.73c-4.19-1.57-11.91,3.37-12.1-5.19-.15-6.75,4.6-11,11.82-10.83,6.04.14,10.61,3.64,11.36,9.38,1.2,9.18-6.38,5.92-11.08,6.64Z"/>
      <path class="cls-1" d="M80.11,384.34c-18.18-1.61-17.35,9.75-17.47,22.8-8.28-9.8-7.75-19.04-3.24-25.55,3.21-4.64,11.77-5.17,20.71,2.75Z"/>
      <path class="cls-1" d="M142.45,407.63c-19.64-4.49-12.05-19.2-16.36-27.82-.69-1.37,3.79-5.98,7.24-3.11,2.12,1.76,10.73,1.38,5.31,6.78-8.36,8.33-2.05,14.91,3.81,24.15Z"/>
      <path class="cls-1" d="M735.29,388.54c-.45,1.03-1.17,2.66-1.88,4.3-1.84-1.55-4.15-2.83-5.32-4.78-.54-.89.97-4.36,1.86-4.48,2.68-.37,4.74,1.22,5.35,4.96Z"/>
      <path class="cls-1" d="M600.75,382.77c2.88-4.91,9.48-6.17,10.79-2.35,2.2,6.39-6.1,3.1-8.96,5.54-.68-1.01-1.3-2.08-1.84-3.19Z"/>
      <path class="cls-1" d="M114.57,385.17c-3.23-1.29-9.96-1.51-8.36-4.82,1.69-3.49,7.95-2.98,11.04,1.92-.95.92-1.84,1.88-2.68,2.9Z"/>
      <path class="cls-1" d="M686.78,395.16c-2.11-.84-4.23-1.68-6.34-2.52,2.83-2.68,5.7-1.79,8.58-.1-.68.92-1.43,1.8-2.24,2.62Z"/>
      <path class="cls-1" d="M609.19,406.28c-1.16-.52-2.3-1.03-3.44-1.53,1.17-1.07,2.2-2.44,3.58-3.04.5-.22,1.82,1.38,2.76,2.15-.96.81-1.92,1.63-2.9,2.42Z"/>
      <path class="cls-1" d="M117.25,382.26c1.69.5,3.7,1.27,2.09,3.22-.58.7-3.12-.18-4.77-.33.83-1.01,1.73-1.98,2.67-2.9Z"/>
    </g>
  </g>
</svg>